<svg width="163" height="96" viewBox="0 0 163 96" fill="none" xmlns="http://www.w3.org/2000/svg">
<rect width="163" height="96" rx="8" fill="#28262E"/>
<path d="M45.9167 82.4842V81.9653H48.065V82.4842L47.3955 82.5986V84.6538H50.2954V82.5986L49.6258 82.4842V81.9653H51.7741V82.4842L51.1046 82.5986V87.285L51.7741 87.3994V87.9142H49.6258V87.3994L50.2954 87.285V85.2871H47.3955V87.285L48.065 87.3994V87.9142H45.9167V87.3994L46.5863 87.285V82.5986L45.9167 82.4842Z" fill="#999591"/>
<path d="M55.3559 87.9142C55.3312 87.7944 55.312 87.6868 55.2984 87.5914C55.2847 87.4961 55.2751 87.4008 55.2696 87.3054C55.1135 87.5043 54.9177 87.6704 54.6822 87.8039C54.4495 87.9346 54.2003 88 53.9347 88C53.4719 88 53.12 87.8883 52.879 87.665C52.638 87.4389 52.5176 87.1216 52.5176 86.713C52.5176 86.2935 52.6873 85.9707 53.0269 85.7447C53.3692 85.5159 53.8374 85.4015 54.4317 85.4015H55.2655V84.8867C55.2655 84.6279 55.1833 84.4236 55.019 84.2738C54.8547 84.1213 54.6261 84.045 54.3331 84.045C54.1304 84.045 53.9511 84.0709 53.795 84.1226C53.6416 84.1744 53.5171 84.2452 53.4212 84.3351L53.335 84.8009H52.7106V83.9428C52.9132 83.7821 53.1583 83.6541 53.4459 83.5588C53.7334 83.4607 54.0456 83.4117 54.3824 83.4117C54.8862 83.4117 55.2942 83.5397 55.6064 83.7958C55.9186 84.0518 56.0747 84.4182 56.0747 84.8948V87.0235C56.0747 87.0807 56.0747 87.1366 56.0747 87.191C56.0774 87.2455 56.0815 87.3 56.087 87.3545L56.4156 87.3994V87.9142H55.3559ZM54.0538 87.3259C54.3221 87.3259 54.5672 87.2618 54.789 87.1338C55.0108 87.0058 55.1696 86.8519 55.2655 86.6721V85.9449H54.4029C54.0716 85.9449 53.8087 86.0211 53.6143 86.1737C53.4226 86.3262 53.3267 86.5114 53.3267 86.7293C53.3267 86.9227 53.387 87.0712 53.5075 87.1747C53.628 87.2755 53.8101 87.3259 54.0538 87.3259Z" fill="#999591"/>
<path d="M57.0892 87.3994L57.7588 87.285V84.1267L57.0892 84.0123V83.4934H58.5679V87.285L59.2375 87.3994V87.9142H57.0892V87.3994ZM58.5679 82.3616H57.7588V81.5404H58.5679V82.3616Z" fill="#999591"/>
<path d="M59.8577 84.0123V83.4934H61.2502L61.3282 84.1349C61.4542 83.9088 61.6089 83.7317 61.7924 83.6037C61.9786 83.4757 62.1908 83.4117 62.429 83.4117C62.492 83.4117 62.5564 83.4171 62.6221 83.428C62.6905 83.4362 62.7426 83.4457 62.7782 83.4566L62.6714 84.2043L62.2113 84.1798C61.9977 84.1798 61.8184 84.2302 61.6732 84.331C61.5281 84.429 61.4158 84.568 61.3364 84.7477V87.285L62.006 87.3994V87.9142H59.8577V87.3994L60.5272 87.285V84.1267L59.8577 84.0123Z" fill="#999591"/>
<path d="M65.255 87.3708C65.5234 87.3708 65.7589 87.2891 65.9615 87.1257C66.1669 86.9595 66.2696 86.7566 66.2696 86.5169H66.9966L67.0048 86.5414C67.0185 86.9227 66.8474 87.2618 66.4914 87.5587C66.1381 87.8529 65.726 88 65.255 88C64.6088 88 64.1145 87.7903 63.7722 87.3708C63.4326 86.9513 63.2629 86.4243 63.2629 85.7896V85.618C63.2629 84.9888 63.434 84.4645 63.7763 84.045C64.1186 83.6228 64.6115 83.4117 65.255 83.4117C65.611 83.4117 65.93 83.4703 66.2121 83.5874C66.4969 83.7045 66.7324 83.8652 66.9186 84.0695L66.9555 85.0501H66.3106L66.134 84.3555C66.0382 84.2629 65.915 84.188 65.7643 84.1308C65.6137 84.0736 65.444 84.045 65.255 84.045C64.8306 84.045 64.5266 84.1975 64.3431 84.5026C64.1624 84.8049 64.072 85.1767 64.072 85.618V85.7896C64.072 86.2418 64.1624 86.619 64.3431 86.9214C64.5239 87.221 64.8278 87.3708 65.255 87.3708Z" fill="#999591"/>
<path d="M70.9727 87.2605C70.833 87.4975 70.6523 87.68 70.4305 87.808C70.2114 87.936 69.9581 88 69.6706 88C69.1887 88 68.8121 87.8461 68.541 87.5383C68.2699 87.2305 68.1344 86.7511 68.1344 86.1001V84.1267L67.6251 84.0123V83.4934H68.9436V86.1083C68.9436 86.5795 69.0134 86.9037 69.1531 87.0807C69.2927 87.2578 69.5104 87.3463 69.8062 87.3463C70.0937 87.3463 70.3305 87.2891 70.5168 87.1747C70.7057 87.0576 70.8481 86.8928 70.9439 86.6803V84.1267L70.3483 84.0123V83.4934H71.7531V87.285L72.2625 87.3994V87.9142H71.0261L70.9727 87.2605Z" fill="#999591"/>
<path d="M74.3162 82.427V83.4934H75.1583V84.0899H74.3162V86.7743C74.3162 86.9813 74.3587 87.127 74.4436 87.2115C74.5312 87.2959 74.6462 87.3381 74.7886 87.3381C74.8598 87.3381 74.9392 87.3327 75.0268 87.3218C75.1172 87.3082 75.1925 87.2945 75.2527 87.2809L75.3636 87.8325C75.287 87.8815 75.1747 87.921 75.0268 87.951C74.879 87.9837 74.7311 88 74.5832 88C74.2546 88 73.9931 87.902 73.7987 87.7058C73.6043 87.507 73.507 87.1965 73.507 86.7743V84.0899H72.8047V83.4934H73.507V82.427H74.3162Z" fill="#999591"/>
<path d="M79.3849 84.8826H78.777L78.6456 84.3514C78.547 84.2588 78.4224 84.1853 78.2718 84.1308C78.1239 84.0736 77.9555 84.045 77.7666 84.045C77.479 84.045 77.2654 84.1076 77.1258 84.2329C76.9861 84.3582 76.9163 84.5094 76.9163 84.6864C76.9163 84.8608 76.9779 84.9983 77.1011 85.0991C77.2244 85.1999 77.4749 85.2898 77.8528 85.3688C78.4142 85.4886 78.8318 85.6521 79.1056 85.8591C79.3794 86.0634 79.5164 86.3385 79.5164 86.6844C79.5164 87.0766 79.3562 87.394 79.0358 87.6364C78.7181 87.8788 78.3019 88 77.7871 88C77.4503 88 77.1477 87.9619 76.8793 87.8856C76.611 87.8066 76.3714 87.6936 76.1605 87.5465L76.1564 86.5373H76.7643L76.9163 87.1297C77.0094 87.2142 77.1354 87.2755 77.2942 87.3136C77.4557 87.3517 77.62 87.3708 77.7871 87.3708C78.0746 87.3708 78.2992 87.3136 78.4607 87.1992C78.625 87.0821 78.7072 86.9295 78.7072 86.7416C78.7072 86.5645 78.6387 86.4188 78.5018 86.3044C78.3676 86.19 78.1116 86.0906 77.7337 86.0062C77.1942 85.889 76.7876 85.7297 76.5138 85.5281C76.2399 85.3266 76.103 85.0542 76.103 84.711C76.103 84.3514 76.2563 84.045 76.563 83.7917C76.8725 83.5383 77.2736 83.4117 77.7666 83.4117C78.1034 83.4117 78.406 83.4553 78.6743 83.5424C78.9427 83.6296 79.1658 83.7508 79.3438 83.9061L79.3849 84.8826Z" fill="#999591"/>
<path d="M82.3054 86.3126C82.3054 85.9803 82.4012 85.6902 82.5929 85.4423C82.7873 85.1917 83.0762 84.9411 83.4596 84.6905C83.246 84.4209 83.0872 84.1812 82.9831 83.9714C82.8791 83.759 82.827 83.5411 82.827 83.3177C82.827 82.8574 82.9598 82.5033 83.2255 82.2554C83.4938 82.0048 83.8621 81.8795 84.3304 81.8795C84.763 81.8795 85.1149 82.0035 85.386 82.2513C85.6571 82.4992 85.7927 82.7975 85.7927 83.1461C85.7927 83.4131 85.7201 83.6446 85.575 83.8407C85.4326 84.0341 85.2204 84.2329 84.9383 84.4372L84.4906 84.7641L85.8871 86.4352C85.9994 86.2581 86.087 86.062 86.15 85.8468C86.213 85.6316 86.2445 85.4042 86.2445 85.1645H86.9674C86.9674 85.5213 86.914 85.8523 86.8072 86.1573C86.7004 86.4624 86.5457 86.7361 86.3431 86.9786L87.103 87.8938L87.0948 87.9142H86.1541L85.805 87.4975C85.5859 87.6609 85.3436 87.7862 85.078 87.8734C84.8123 87.9578 84.5371 88 84.2523 88C83.6581 88 83.1844 87.8434 82.8311 87.5301C82.4806 87.2169 82.3054 86.8111 82.3054 86.3126ZM84.2523 87.3708C84.4495 87.3708 84.6439 87.3381 84.8356 87.2727C85.0273 87.2046 85.208 87.1079 85.3778 86.9827L83.895 85.2053L83.7307 85.3238C83.4815 85.5091 83.3158 85.6861 83.2337 85.855C83.1543 86.0239 83.1146 86.1764 83.1146 86.3126C83.1146 86.6204 83.2118 86.8737 83.4062 87.0725C83.6006 87.2714 83.8827 87.3708 84.2523 87.3708ZM83.6362 83.3095C83.6362 83.4539 83.6732 83.6051 83.7471 83.7631C83.8211 83.9183 83.932 84.0886 84.0798 84.2738L84.6467 83.8856C84.8028 83.7821 84.9082 83.6705 84.9629 83.5506C85.0205 83.428 85.0492 83.2932 85.0492 83.1461C85.0492 82.98 84.9821 82.8329 84.8479 82.7049C84.7165 82.5768 84.544 82.5128 84.3304 82.5128C84.1086 82.5128 83.9374 82.5904 83.8169 82.7457C83.6965 82.8982 83.6362 83.0862 83.6362 83.3095Z" fill="#999591"/>
<path d="M94.0159 83.7222H93.4039L93.2519 82.8724C93.1287 82.7689 92.9644 82.6831 92.759 82.615C92.5537 82.5469 92.3154 82.5128 92.0443 82.5128C91.6144 82.5128 91.2844 82.6041 91.0544 82.7866C90.8244 82.9663 90.7094 83.202 90.7094 83.4934C90.7094 83.7522 90.8258 83.9687 91.0585 84.143C91.294 84.3146 91.6733 84.4658 92.1963 84.5966C92.8261 84.7518 93.304 84.9806 93.6298 85.283C93.9584 85.5853 94.1227 85.9598 94.1227 86.4066C94.1227 86.886 93.9256 87.2714 93.5313 87.5628C93.1397 87.8543 92.6262 88 91.9909 88C91.5309 88 91.1215 87.9251 90.7628 87.7753C90.4068 87.6255 90.1165 87.4294 89.892 87.1869V86.0797H90.4999L90.656 86.9336C90.8121 87.0616 90.9983 87.1665 91.2146 87.2482C91.4309 87.3299 91.6897 87.3708 91.9909 87.3708C92.3989 87.3708 92.7207 87.285 92.9562 87.1134C93.1944 86.9418 93.3136 86.7089 93.3136 86.4147C93.3136 86.1423 93.2109 85.9149 93.0055 85.7324C92.8001 85.5472 92.4373 85.3919 91.917 85.2666C91.2844 85.1168 90.7902 84.8962 90.4342 84.6047C90.0782 84.3133 89.9002 83.9469 89.9002 83.5057C89.9002 83.0399 90.0987 82.6531 90.4958 82.3453C90.8929 82.0348 91.409 81.8795 92.0443 81.8795C92.4633 81.8795 92.8439 81.9517 93.1862 82.0961C93.5313 82.2377 93.8078 82.4107 94.0159 82.615V83.7222Z" fill="#999591"/>
<path d="M94.7758 87.3994L95.4454 87.285V82.1737L94.7758 82.0593V81.5404H96.2546V84.0818C96.4079 83.8693 96.5955 83.7045 96.8173 83.5874C97.0391 83.4703 97.2855 83.4117 97.5566 83.4117C98.0331 83.4117 98.4028 83.5533 98.6657 83.8366C98.9286 84.1199 99.06 84.5557 99.06 85.1441V87.285L99.7295 87.3994V87.9142H97.5813V87.3994L98.2508 87.285V85.1359C98.2508 84.7709 98.1714 84.5012 98.0126 84.3269C97.8565 84.1526 97.6224 84.0654 97.3102 84.0654C97.0884 84.0654 96.8857 84.1185 96.7023 84.2248C96.5215 84.3283 96.3723 84.4699 96.2546 84.6497V87.285L96.9241 87.3994V87.9142H94.7758V87.3994Z" fill="#999591"/>
<path d="M103.217 87.9142C103.192 87.7944 103.173 87.6868 103.159 87.5914C103.146 87.4961 103.136 87.4008 103.131 87.3054C102.974 87.5043 102.779 87.6704 102.543 87.8039C102.31 87.9346 102.061 88 101.796 88C101.333 88 100.981 87.8883 100.74 87.665C100.499 87.4389 100.379 87.1216 100.379 86.713C100.379 86.2935 100.548 85.9707 100.888 85.7447C101.23 85.5159 101.698 85.4015 102.293 85.4015H103.126V84.8867C103.126 84.6279 103.044 84.4236 102.88 84.2738C102.716 84.1213 102.487 84.045 102.194 84.045C101.991 84.045 101.812 84.0709 101.656 84.1226C101.503 84.1744 101.378 84.2452 101.282 84.3351L101.196 84.8009H100.572V83.9428C100.774 83.7821 101.019 83.6541 101.307 83.5588C101.594 83.4607 101.907 83.4117 102.243 83.4117C102.747 83.4117 103.155 83.5397 103.467 83.7958C103.78 84.0518 103.936 84.4182 103.936 84.8948V87.0235C103.936 87.0807 103.936 87.1366 103.936 87.191C103.938 87.2455 103.942 87.3 103.948 87.3545L104.277 87.3994V87.9142H103.217ZM101.915 87.3259C102.183 87.3259 102.428 87.2618 102.65 87.1338C102.872 87.0058 103.031 86.8519 103.126 86.6721V85.9449H102.264C101.933 85.9449 101.67 86.0211 101.475 86.1737C101.284 86.3262 101.188 86.5114 101.188 86.7293C101.188 86.9227 101.248 87.0712 101.368 87.1747C101.489 87.2755 101.671 87.3259 101.915 87.3259Z" fill="#999591"/>
<path d="M106.408 84.0123L105.874 84.094L106.79 86.6108L106.864 86.9295H106.889L106.967 86.6108L107.854 84.094L107.316 84.0123V83.4934H109.033V84.0123L108.668 84.0736L107.176 87.9142H106.564L105.057 84.0736L104.691 84.0123V83.4934H106.408V84.0123Z" fill="#999591"/>
<path d="M111.555 88C110.936 88 110.443 87.7957 110.076 87.3871C109.712 86.9758 109.53 86.4433 109.53 85.7896V85.6098C109.53 84.9806 109.718 84.4576 110.093 84.0409C110.471 83.6214 110.917 83.4117 111.432 83.4117C112.029 83.4117 112.481 83.5915 112.787 83.951C113.097 84.3106 113.252 84.79 113.252 85.3892V85.8918H110.368L110.356 85.9122C110.364 86.3371 110.472 86.6871 110.68 86.9622C110.888 87.2346 111.18 87.3708 111.555 87.3708C111.829 87.3708 112.069 87.3327 112.274 87.2564C112.482 87.1774 112.661 87.0698 112.812 86.9336L113.128 87.4566C112.969 87.6091 112.759 87.7385 112.496 87.8448C112.236 87.9483 111.922 88 111.555 88ZM111.432 84.045C111.161 84.045 110.929 84.1594 110.738 84.3882C110.546 84.6143 110.428 84.8989 110.384 85.2421L110.393 85.2625H112.442V85.1563C112.442 84.8403 112.357 84.5761 112.188 84.3637C112.018 84.1512 111.766 84.045 111.432 84.045Z" fill="#999591"/>
<path d="M117.454 84.8826H116.846L116.714 84.3514C116.616 84.2588 116.491 84.1853 116.34 84.1308C116.193 84.0736 116.024 84.045 115.835 84.045C115.548 84.045 115.334 84.1076 115.194 84.2329C115.055 84.3582 114.985 84.5094 114.985 84.6864C114.985 84.8608 115.047 84.9983 115.17 85.0991C115.293 85.1999 115.544 85.2898 115.921 85.3688C116.483 85.4886 116.9 85.6521 117.174 85.8591C117.448 86.0634 117.585 86.3385 117.585 86.6844C117.585 87.0766 117.425 87.394 117.104 87.6364C116.787 87.8788 116.371 88 115.856 88C115.519 88 115.216 87.9619 114.948 87.8856C114.68 87.8066 114.44 87.6936 114.229 87.5465L114.225 86.5373H114.833L114.985 87.1297C115.078 87.2142 115.204 87.2755 115.363 87.3136C115.524 87.3517 115.689 87.3708 115.856 87.3708C116.143 87.3708 116.368 87.3136 116.529 87.1992C116.694 87.0821 116.776 86.9295 116.776 86.7416C116.776 86.5645 116.707 86.4188 116.57 86.3044C116.436 86.19 116.18 86.0906 115.802 86.0062C115.263 85.889 114.856 85.7297 114.582 85.5281C114.309 85.3266 114.172 85.0542 114.172 84.711C114.172 84.3514 114.325 84.045 114.632 83.7917C114.941 83.5383 115.342 83.4117 115.835 83.4117C116.172 83.4117 116.475 83.4553 116.743 83.5424C117.011 83.6296 117.234 83.7508 117.412 83.9061L117.454 84.8826Z" fill="#999591"/>
<path d="M62.7327 13.4341L63.1763 13.3728L65.267 8H65.9612L68.015 13.3728L68.4545 13.4341V13.9489H66.7375V13.4341L67.1893 13.3564L66.795 12.2615H64.4003L63.9937 13.3564L64.4455 13.4341V13.9489H62.7327V13.4341ZM64.6509 11.5873H66.5486L65.6203 9.0337H65.5956L64.6509 11.5873Z" fill="#999591"/>
<path d="M70.1016 10.047L69.5922 10.1369L70.1714 12.3391L70.2659 12.8743H70.2905L70.4055 12.3391L71.2928 9.52808H71.9418L72.8331 12.3391L72.9604 12.9356H72.9851L73.1042 12.3391L73.6505 10.1369L73.1329 10.047V9.52808H74.8252V10.047L74.4391 10.1042L73.3178 13.9489H72.6647L71.8021 11.2564L71.6173 10.5127L71.5926 10.5168L71.4201 11.2564L70.5739 13.9489H69.9208L68.7995 10.1042L68.4093 10.047V9.52808H70.1016V10.047Z" fill="#999591"/>
<path d="M77.5116 14.0347C76.8927 14.0347 76.3998 13.8304 76.0329 13.4218C75.6687 13.0105 75.4866 12.478 75.4866 11.8243V11.6445C75.4866 11.0153 75.6741 10.4923 76.0493 10.0756C76.4272 9.6561 76.8735 9.44636 77.3883 9.44636C77.9853 9.44636 78.4371 9.62614 78.7438 9.98568C79.0533 10.3452 79.208 10.8246 79.208 11.4239V11.9264H76.3245L76.3122 11.9469C76.3204 12.3718 76.4285 12.7218 76.6367 12.9969C76.8448 13.2693 77.1364 13.4055 77.5116 13.4055C77.7854 13.4055 78.025 13.3673 78.2304 13.2911C78.4385 13.2121 78.6179 13.1045 78.7685 12.9683L79.0848 13.4913C78.9259 13.6438 78.7151 13.7732 78.4522 13.8794C78.192 13.9829 77.8785 14.0347 77.5116 14.0347ZM77.3883 10.0797C77.1172 10.0797 76.8859 10.1941 76.6942 10.4229C76.5025 10.6489 76.3847 10.9336 76.3409 11.2768L76.3491 11.2972H78.3988V11.191C78.3988 10.875 78.3139 10.6108 78.1441 10.3983C77.9744 10.1859 77.7224 10.0797 77.3883 10.0797Z" fill="#999591"/>
<path d="M83.41 10.9172H82.8021L82.6706 10.3861C82.572 10.2935 82.4475 10.2199 82.2968 10.1655C82.149 10.1083 81.9806 10.0797 81.7916 10.0797C81.5041 10.0797 81.2905 10.1423 81.1508 10.2676C81.0112 10.3929 80.9414 10.5441 80.9414 10.7211C80.9414 10.8954 81.003 11.033 81.1262 11.1338C81.2494 11.2346 81.5 11.3245 81.8779 11.4034C82.4392 11.5233 82.8568 11.6867 83.1307 11.8937C83.4045 12.098 83.5414 12.3731 83.5414 12.7191C83.5414 13.1113 83.3812 13.4286 83.0608 13.671C82.7432 13.9135 82.327 14.0347 81.8122 14.0347C81.4753 14.0347 81.1727 13.9965 80.9044 13.9203C80.636 13.8413 80.3964 13.7282 80.1856 13.5812L80.1815 12.572H80.7894L80.9414 13.1644C81.0345 13.2489 81.1604 13.3101 81.3193 13.3483C81.4808 13.3864 81.6451 13.4055 81.8122 13.4055C82.0997 13.4055 82.3242 13.3483 82.4858 13.2339C82.6501 13.1167 82.7322 12.9642 82.7322 12.7763C82.7322 12.5992 82.6638 12.4535 82.5269 12.3391C82.3927 12.2247 82.1367 12.1253 81.7588 12.0408C81.2193 11.9237 80.8127 11.7644 80.5388 11.5628C80.265 11.3612 80.1281 11.0888 80.1281 10.7456C80.1281 10.3861 80.2814 10.0797 80.5881 9.82634C80.8975 9.57302 81.2987 9.44636 81.7916 9.44636C82.1284 9.44636 82.431 9.48994 82.6994 9.57711C82.9677 9.66427 83.1909 9.78548 83.3689 9.94074L83.41 10.9172Z" fill="#999591"/>
<path d="M84.3013 11.6976C84.3013 11.0439 84.4793 10.5059 84.8353 10.0837C85.1913 9.65882 85.6746 9.44636 86.2853 9.44636C86.8986 9.44636 87.3833 9.65746 87.7393 10.0797C88.098 10.5019 88.2774 11.0412 88.2774 11.6976V11.7875C88.2774 12.4467 88.0994 12.986 87.7434 13.4055C87.3874 13.8249 86.9041 14.0347 86.2935 14.0347C85.6773 14.0347 85.1913 13.8249 84.8353 13.4055C84.4793 12.9833 84.3013 12.444 84.3013 11.7875V11.6976ZM85.1105 11.7875C85.1105 12.256 85.2091 12.6428 85.4062 12.9479C85.6061 13.2529 85.9019 13.4055 86.2935 13.4055C86.6768 13.4055 86.9685 13.2529 87.1684 12.9479C87.3683 12.6428 87.4682 12.256 87.4682 11.7875V11.6976C87.4682 11.2346 87.3683 10.8491 87.1684 10.5413C86.9685 10.2336 86.6741 10.0797 86.2853 10.0797C85.8964 10.0797 85.6034 10.2336 85.4062 10.5413C85.2091 10.8491 85.1105 11.2346 85.1105 11.6976V11.7875Z" fill="#999591"/>
<path d="M88.8607 13.4341L89.5302 13.3197V10.1614L88.8607 10.047V9.52808H90.2572L90.3106 10.1042C90.453 9.89444 90.6365 9.73237 90.861 9.61796C91.0856 9.50356 91.3457 9.44636 91.6415 9.44636C91.9372 9.44636 92.1905 9.51446 92.4014 9.65065C92.615 9.78684 92.7752 9.99113 92.882 10.2635C93.0216 10.0129 93.2065 9.81408 93.4365 9.66699C93.6665 9.51991 93.9349 9.44636 94.2415 9.44636C94.6961 9.44636 95.0548 9.60162 95.3177 9.91214C95.5806 10.2199 95.712 10.6844 95.712 11.3054V13.3197L96.3816 13.4341V13.9489H94.2292V13.4341L94.8988 13.3197V11.2972C94.8988 10.8614 94.8234 10.5536 94.6728 10.3738C94.5222 10.1913 94.2991 10.1001 94.0033 10.1001C93.7213 10.1001 93.494 10.1995 93.3215 10.3983C93.1517 10.5945 93.0531 10.8423 93.0257 11.142V13.3197L93.6952 13.4341V13.9489H91.547V13.4341L92.2165 13.3197V11.2972C92.2165 10.8832 92.1385 10.5808 91.9824 10.3902C91.8291 10.1968 91.6059 10.1001 91.3129 10.1001C91.0664 10.1001 90.8638 10.1505 90.705 10.2513C90.5461 10.352 90.4243 10.4937 90.3394 10.6762V13.3197L91.0089 13.4341V13.9489H88.8607V13.4341Z" fill="#999591"/>
<path d="M98.9611 14.0347C98.3422 14.0347 97.8493 13.8304 97.4824 13.4218C97.1182 13.0105 96.9361 12.478 96.9361 11.8243V11.6445C96.9361 11.0153 97.1237 10.4923 97.4988 10.0756C97.8767 9.6561 98.3231 9.44636 98.8379 9.44636C99.4348 9.44636 99.8867 9.62614 100.193 9.98568C100.503 10.3452 100.658 10.8246 100.658 11.4239V11.9264H97.774L97.7617 11.9469C97.7699 12.3718 97.8781 12.7218 98.0862 12.9969C98.2943 13.2693 98.5859 13.4055 98.9611 13.4055C99.2349 13.4055 99.4745 13.3673 99.6799 13.2911C99.888 13.2121 100.067 13.1045 100.218 12.9683L100.534 13.4913C100.375 13.6438 100.165 13.7732 99.9017 13.8794C99.6416 13.9829 99.328 14.0347 98.9611 14.0347ZM98.8379 10.0797C98.5668 10.0797 98.3354 10.1941 98.1437 10.4229C97.952 10.6489 97.8343 10.9336 97.7905 11.2768L97.7987 11.2972H99.8483V11.191C99.8483 10.875 99.7634 10.6108 99.5937 10.3983C99.4239 10.1859 99.172 10.0797 98.8379 10.0797Z" fill="#999591"/>
<rect x="13" y="71.3271" width="137.6" height="1.19538" fill="#FF9000"/>
<rect x="13" y="23.5119" width="137.6" height="1.19538" fill="#FF9000"/>
<path d="M44.8702 46.6879V55.0891C44.8702 55.8031 44.7244 56.4837 44.4328 57.1308C44.1636 57.7556 43.7934 58.3022 43.3223 58.7708C42.8513 59.2394 42.2904 59.6076 41.6399 59.8754C41.0118 60.1654 40.3388 60.3105 39.621 60.3105C38.9031 60.3105 38.2301 60.1766 37.602 59.9088C36.9739 59.6411 36.4243 59.2841 35.9532 58.8378C35.4821 58.3692 35.1008 57.8337 34.8092 57.2312C34.54 56.6064 34.3942 55.937 34.3717 55.223V49.0309C34.3044 48.3392 33.9904 47.8371 33.4296 47.5247C33.7436 47.3685 34.0577 47.2904 34.3717 47.2904V39.3913C34.3942 38.6773 34.54 38.0079 34.8092 37.3831C35.1008 36.7583 35.4821 36.2228 35.9532 35.7765C36.4243 35.3079 36.9739 34.9398 37.602 34.672C38.2301 34.4042 38.9031 34.2703 39.621 34.2703C40.3388 34.2703 41.0118 34.4154 41.6399 34.7055C42.2904 34.9732 42.8513 35.3414 43.3223 35.81C43.7934 36.2786 44.1636 36.8364 44.4328 37.4835C44.7244 38.1083 44.8702 38.7889 44.8702 39.5252C44.8702 39.9046 44.9038 40.1835 44.9711 40.362C45.0609 40.5405 45.1506 40.6855 45.2403 40.7971C45.3301 40.9087 45.4086 41.0091 45.4759 41.0983C45.5656 41.1876 45.6105 41.3326 45.6105 41.5335H43.8607C43.5018 41.4888 43.3223 41.2992 43.3223 40.9645C43.3223 41.2992 43.1429 41.4888 42.784 41.5335H41.0006C41.0006 41.3326 41.0342 41.1876 41.1015 41.0983C41.1912 41.0091 41.281 40.9087 41.3707 40.7971C41.4604 40.6855 41.539 40.5405 41.6062 40.362C41.696 40.1835 41.7408 39.8934 41.7408 39.4918V39.4583C41.7408 39.1682 41.7296 38.8223 41.7072 38.4207C41.6848 37.9967 41.6062 37.5951 41.4717 37.2158C41.3371 36.8364 41.1239 36.5129 40.8323 36.2451C40.5407 35.9773 40.1369 35.8435 39.621 35.8435C39.0826 35.8435 38.6676 35.9885 38.376 36.2786C38.1068 36.5463 37.9049 36.8699 37.7703 37.2492C37.6357 37.6286 37.5572 38.0302 37.5347 38.4542C37.5123 38.8781 37.5011 39.2351 37.5011 39.5252V47.2904C37.8151 47.2904 38.1292 47.3685 38.4433 47.5247C37.8824 47.8371 37.5684 48.3392 37.5011 49.0309V55.0891C37.5011 55.3791 37.5123 55.7362 37.5347 56.1601C37.5572 56.5618 37.6357 56.9634 37.7703 57.3651C37.9049 57.7444 38.1068 58.068 38.376 58.3357C38.6676 58.6035 39.0826 58.7374 39.621 58.7374C40.1593 58.7374 40.5631 58.6035 40.8323 58.3357C41.1239 58.068 41.3371 57.7444 41.4717 57.3651C41.6062 56.9634 41.6848 56.5618 41.7072 56.1601C41.7296 55.7362 41.7408 55.3791 41.7408 55.0891V48.2276C41.4941 48.2499 41.281 48.3503 41.1015 48.5288C40.9445 48.7073 40.866 48.9193 40.866 49.1648V49.1982C40.8435 49.5329 40.7538 49.823 40.5968 50.0685C40.4622 50.2916 40.2603 50.4924 39.9911 50.6709C39.7219 50.8271 39.3293 50.9052 38.8134 50.9052V46.6879H44.8702ZM36.1888 45.7173C36.1888 45.5834 36.1776 45.4495 36.1551 45.3156C36.1551 45.1818 36.1551 45.059 36.1551 44.9475V44.1776C36.1327 43.6867 36.1215 43.2182 36.1215 42.7719C36.1215 42.3256 36.1103 41.9016 36.0878 41.5C36.0654 41.2992 36.0542 41.1207 36.0542 40.9645C36.0542 40.786 36.043 40.6074 36.0205 40.4289C36.0205 40.2727 36.0093 40.1277 35.9869 39.9938C35.9869 39.8376 35.9869 39.7037 35.9869 39.5922C35.9869 39.4806 35.9757 39.3802 35.9532 39.2909C35.9532 39.2017 35.9532 39.1236 35.9532 39.0566V38.8893C35.9308 38.8893 35.9196 38.9004 35.9196 38.9228V39.0566C35.9196 39.1236 35.9084 39.2017 35.8859 39.2909C35.8859 39.3802 35.8859 39.4806 35.8859 39.5922C35.8859 39.7037 35.8747 39.8376 35.8523 39.9938C35.8523 40.1277 35.8523 40.2727 35.8523 40.4289C35.8299 40.6074 35.8186 40.786 35.8186 40.9645C35.8186 41.1207 35.8074 41.2992 35.785 41.5C35.7626 41.9016 35.7513 42.3256 35.7513 42.7719C35.7513 43.2182 35.7401 43.6867 35.7177 44.1776V44.9475C35.7177 45.059 35.7065 45.1818 35.684 45.3156C35.684 45.4495 35.684 45.5834 35.684 45.7173V48.8301C35.684 48.897 35.684 48.9639 35.684 49.0309C35.7065 49.0978 35.7177 49.1536 35.7177 49.1982V50.3362C35.7177 50.5817 35.7177 50.8271 35.7177 51.0726C35.7401 51.2957 35.7513 51.5189 35.7513 51.742C35.7513 51.9875 35.7513 52.2218 35.7513 52.4449C35.7738 52.6457 35.785 52.8354 35.785 53.0139C35.8074 53.2147 35.8186 53.4044 35.8186 53.5829C35.8186 53.7614 35.8299 53.9288 35.8523 54.085C35.8523 54.2635 35.8523 54.4197 35.8523 54.5535C35.8747 54.6874 35.8859 54.8101 35.8859 54.9217C35.8859 55.0333 35.8859 55.1337 35.8859 55.223C35.9084 55.3122 35.9196 55.3903 35.9196 55.4572V55.6246C35.9196 55.6469 35.9308 55.6581 35.9532 55.6581V55.4572C35.9532 55.3903 35.9532 55.3122 35.9532 55.223C35.9757 55.1337 35.9869 55.0333 35.9869 54.9217C35.9869 54.8101 35.9869 54.6874 35.9869 54.5535C36.0093 54.4197 36.0205 54.2635 36.0205 54.085C36.043 53.9288 36.0542 53.7614 36.0542 53.5829C36.0542 53.4044 36.0654 53.2147 36.0878 53.0139C36.0878 52.8354 36.0878 52.6457 36.0878 52.4449C36.1103 52.2218 36.1215 51.9875 36.1215 51.742C36.1215 51.5189 36.1215 51.2957 36.1215 51.0726C36.1439 50.8271 36.1551 50.5817 36.1551 50.3362V49.5999C36.1551 49.4214 36.1663 49.2875 36.1888 49.1982V45.7173ZM43.5242 50.5705C43.5018 50.3474 43.4906 50.1466 43.4906 49.9681C43.4906 49.7672 43.4794 49.5776 43.4569 49.3991C43.4345 49.0644 43.4009 48.7854 43.356 48.5623C43.356 48.5177 43.3448 48.473 43.3223 48.4284C43.3223 48.3838 43.3223 48.3503 43.3223 48.328V48.2276L43.2887 48.2611V48.328C43.2887 48.3503 43.2775 48.3838 43.255 48.4284C43.255 48.473 43.255 48.5177 43.255 48.5623C43.2102 48.7854 43.1765 49.0644 43.1541 49.3991C43.1317 49.5776 43.1204 49.7672 43.1204 49.9681C43.1204 50.1466 43.1092 50.3474 43.0868 50.5705V50.9052C43.0868 50.9722 43.0756 51.0391 43.0532 51.1061C43.0532 51.1507 43.0532 51.1953 43.0532 51.2399V52.6457C43.0532 52.7127 43.0644 52.7684 43.0868 52.8131V53.3151C43.0868 53.4267 43.0868 53.5271 43.0868 53.6164C43.1092 53.7056 43.1204 53.806 43.1204 53.9176C43.1204 54.0292 43.1204 54.1296 43.1204 54.2188C43.1429 54.3081 43.1541 54.3973 43.1541 54.4866C43.1765 54.5759 43.1877 54.6651 43.1877 54.7544C43.1877 54.8213 43.199 54.8882 43.2214 54.9552C43.2214 55.0221 43.2214 55.0891 43.2214 55.156C43.2438 55.223 43.255 55.2787 43.255 55.3234C43.255 55.368 43.255 55.4126 43.255 55.4572C43.2775 55.5019 43.2887 55.5353 43.2887 55.5577V55.6246C43.2887 55.6469 43.2999 55.6581 43.3223 55.6581V55.5577C43.3223 55.5353 43.3223 55.5019 43.3223 55.4572C43.3448 55.4126 43.356 55.368 43.356 55.3234C43.356 55.2787 43.356 55.223 43.356 55.156C43.3784 55.0891 43.3896 55.0221 43.3896 54.9552C43.4121 54.8882 43.4233 54.8213 43.4233 54.7544C43.4233 54.6651 43.4345 54.5759 43.4569 54.4866C43.4569 54.3973 43.4569 54.3081 43.4569 54.2188C43.4794 54.1296 43.4906 54.0292 43.4906 53.9176C43.4906 53.806 43.4906 53.7056 43.4906 53.6164C43.513 53.5271 43.5242 53.4267 43.5242 53.3151V52.9804C43.5242 52.8912 43.5355 52.8354 43.5579 52.8131V51.2399C43.5579 51.1953 43.5467 51.1507 43.5242 51.1061C43.5242 51.0391 43.5242 50.9722 43.5242 50.9052V50.5705Z" fill="#F4EDE8"/>
<path d="M57.0942 47.3239C57.4756 47.3239 57.7896 47.402 58.0364 47.5582C57.7896 47.7144 57.5765 47.9264 57.397 48.1941C57.24 48.4619 57.1391 48.752 57.0942 49.0644V54.1184C57.0718 54.8325 56.9147 55.5019 56.6231 56.1267C56.3539 56.7291 55.9838 57.2647 55.5127 57.7332C55.0416 58.1795 54.492 58.5365 53.8639 58.8043C53.2358 59.0721 52.5628 59.206 51.845 59.206C51.1271 59.206 50.4542 59.0721 49.826 58.8043C49.1979 58.5365 48.6483 58.1795 48.1772 57.7332C47.7062 57.2647 47.3248 56.7291 47.0332 56.1267C46.764 55.5019 46.6182 54.8325 46.5957 54.1184V49.0644C46.5285 48.3726 46.2144 47.8706 45.6536 47.5582C45.9003 47.402 46.2144 47.3239 46.5957 47.3239V40.8641C46.6182 40.1723 46.764 39.5141 47.0332 38.8893C47.3248 38.2645 47.7062 37.729 48.1772 37.2827C48.6483 36.8141 49.1979 36.4459 49.826 36.1782C50.4542 35.9104 51.1271 35.7765 51.845 35.7765C52.5628 35.7765 53.2358 35.9104 53.8639 36.1782C54.492 36.4459 55.0416 36.8141 55.5127 37.2827C55.9838 37.729 56.3539 38.2645 56.6231 38.8893C56.9147 39.5141 57.0718 40.1723 57.0942 40.8641V47.3239ZM48.4128 46.1189C48.4128 46.0074 48.4016 45.907 48.3791 45.8177C48.3791 45.7061 48.3791 45.5946 48.3791 45.483V44.8471C48.3567 44.4231 48.3455 44.0214 48.3455 43.6421C48.3455 43.2628 48.3343 42.9058 48.3118 42.5711C48.2894 42.4149 48.2782 42.2587 48.2782 42.1025C48.2782 41.9463 48.267 41.8012 48.2445 41.6673C48.2445 41.5335 48.2333 41.4107 48.2109 41.2992C48.2109 41.1876 48.2109 41.0872 48.2109 40.9979C48.2109 40.8864 48.1997 40.7971 48.1772 40.7302C48.1772 40.6409 48.1772 40.574 48.1772 40.5293V40.362C48.1548 40.362 48.1436 40.3732 48.1436 40.3955V40.5293C48.1436 40.574 48.1324 40.6409 48.11 40.7302C48.11 40.7971 48.11 40.8864 48.11 40.9979C48.11 41.0872 48.0987 41.1876 48.0763 41.2992C48.0763 41.4107 48.0763 41.5335 48.0763 41.6673C48.0539 41.8012 48.0427 41.9463 48.0427 42.1025C48.0427 42.2587 48.0314 42.4149 48.009 42.5711C47.9866 42.9058 47.9754 43.2628 47.9754 43.6421C47.9754 44.0214 47.9641 44.4231 47.9417 44.8471V45.483C47.9417 45.5946 47.9305 45.7061 47.9081 45.8177C47.9081 45.907 47.9081 46.0074 47.9081 46.1189V48.7631C47.9081 48.9193 47.9193 49.0309 47.9417 49.0978V50.0685C47.9417 50.2693 47.9417 50.4701 47.9417 50.6709C47.9641 50.8718 47.9754 51.0614 47.9754 51.2399C47.9754 51.4408 47.9754 51.6304 47.9754 51.8089C47.9978 51.9651 48.009 52.1325 48.009 52.311C48.0314 52.4895 48.0427 52.6569 48.0427 52.8131C48.0427 52.9469 48.0539 53.0808 48.0763 53.2147C48.0763 53.3486 48.0763 53.4713 48.0763 53.5829C48.0987 53.6945 48.11 53.806 48.11 53.9176C48.11 54.0292 48.11 54.1296 48.11 54.2188C48.1324 54.2858 48.1436 54.3416 48.1436 54.3862V54.4866C48.1436 54.5089 48.1548 54.5201 48.1772 54.5201V54.3862C48.1772 54.3416 48.1772 54.2858 48.1772 54.2188C48.1997 54.1296 48.2109 54.0292 48.2109 53.9176C48.2109 53.806 48.2109 53.6945 48.2109 53.5829C48.2333 53.4713 48.2445 53.3486 48.2445 53.2147C48.267 53.0808 48.2782 52.9469 48.2782 52.8131C48.2782 52.6569 48.2894 52.4895 48.3118 52.311C48.3118 52.1325 48.3118 51.9651 48.3118 51.8089C48.3343 51.6304 48.3455 51.4408 48.3455 51.2399C48.3455 51.0614 48.3455 50.8718 48.3455 50.6709C48.3679 50.4701 48.3791 50.2693 48.3791 50.0685V49.0978C48.4016 49.0309 48.4128 48.9193 48.4128 48.7631V46.1189ZM53.9649 40.9979C53.9649 40.7079 53.9536 40.3508 53.9312 39.9269C53.9088 39.5029 53.8303 39.1013 53.6957 38.7219C53.5611 38.3426 53.348 38.0191 53.0563 37.7513C52.7871 37.4612 52.3834 37.3162 51.845 37.3162C51.3066 37.3162 50.8916 37.4612 50.6 37.7513C50.3308 38.0191 50.1289 38.3426 49.9943 38.7219C49.8597 39.1013 49.7812 39.5029 49.7587 39.9269C49.7363 40.3508 49.7251 40.7079 49.7251 40.9979V47.3239C50.1065 47.3239 50.4205 47.402 50.6673 47.5582C50.1065 47.8706 49.7924 48.3726 49.7251 49.0644V53.9845C49.7251 54.2746 49.7363 54.6316 49.7587 55.0556C49.7812 55.4572 49.8597 55.8589 49.9943 56.2605C50.1289 56.6399 50.3308 56.9634 50.6 57.2312C50.8916 57.499 51.3066 57.6328 51.845 57.6328C52.3834 57.6328 52.7871 57.499 53.0563 57.2312C53.348 56.9634 53.5611 56.6399 53.6957 56.2605C53.8303 55.8589 53.9088 55.4572 53.9312 55.0556C53.9536 54.6316 53.9649 54.2746 53.9649 53.9845V49.0644C53.92 48.3949 53.6059 47.8929 53.0227 47.5582C53.2694 47.402 53.5835 47.3239 53.9649 47.3239V40.9979ZM55.7819 46.1189C55.7819 46.0074 55.7819 45.907 55.7819 45.8177C55.7819 45.7061 55.7707 45.5946 55.7483 45.483V44.8471C55.7483 44.4231 55.737 44.0214 55.7146 43.6421C55.7146 43.2628 55.7034 42.9058 55.681 42.5711C55.6585 42.4149 55.6473 42.2587 55.6473 42.1025C55.6473 41.9463 55.6361 41.8012 55.6137 41.6673C55.6137 41.5335 55.6024 41.4107 55.58 41.2992C55.58 41.1876 55.58 41.0872 55.58 40.9979C55.58 40.8864 55.5688 40.7971 55.5464 40.7302C55.5464 40.6409 55.5464 40.574 55.5464 40.5293V40.362C55.5239 40.362 55.5127 40.3732 55.5127 40.3955V40.5293C55.5127 40.574 55.5127 40.6409 55.5127 40.7302C55.5127 40.7971 55.5015 40.8864 55.4791 40.9979C55.4791 41.0872 55.4678 41.1876 55.4454 41.2992C55.4454 41.4107 55.4454 41.5335 55.4454 41.6673C55.423 41.8012 55.4118 41.9463 55.4118 42.1025C55.4118 42.2587 55.4005 42.4149 55.3781 42.5711C55.3557 42.9058 55.3445 43.2628 55.3445 43.6421C55.3445 44.0214 55.3332 44.4231 55.3108 44.8471V46.1189C55.2884 46.3421 55.2772 46.5652 55.2772 46.7884C55.2772 47.0115 55.2772 47.2346 55.2772 47.4578C55.2772 47.6809 55.2772 47.904 55.2772 48.1272C55.2772 48.328 55.2884 48.54 55.3108 48.7631V50.0685C55.3108 50.2693 55.3108 50.4701 55.3108 50.6709C55.3332 50.8718 55.3445 51.0614 55.3445 51.2399C55.3445 51.4408 55.3445 51.6304 55.3445 51.8089C55.3669 51.9651 55.3781 52.1325 55.3781 52.311C55.4005 52.4895 55.4118 52.6569 55.4118 52.8131C55.4118 52.9469 55.423 53.0808 55.4454 53.2147C55.4454 53.3486 55.4454 53.4713 55.4454 53.5829C55.4678 53.6945 55.4791 53.806 55.4791 53.9176C55.5015 54.0292 55.5127 54.1296 55.5127 54.2188C55.5127 54.2858 55.5127 54.3416 55.5127 54.3862V54.4866C55.5127 54.5089 55.5239 54.5201 55.5464 54.5201V54.3862C55.5464 54.3416 55.5464 54.2858 55.5464 54.2188C55.5688 54.1296 55.58 54.0292 55.58 53.9176C55.58 53.806 55.58 53.6945 55.58 53.5829C55.6024 53.4713 55.6137 53.3486 55.6137 53.2147C55.6361 53.0808 55.6473 52.9469 55.6473 52.8131C55.6473 52.6569 55.6585 52.4895 55.681 52.311C55.681 52.1325 55.681 51.9651 55.681 51.8089C55.7034 51.6304 55.7146 51.4408 55.7146 51.2399C55.7146 51.0614 55.7146 50.8718 55.7146 50.6709C55.737 50.4701 55.7483 50.2693 55.7483 50.0685V49.4325C55.7483 49.3879 55.7483 49.3321 55.7483 49.2652C55.7707 49.1982 55.7819 49.1425 55.7819 49.0978V46.1189Z" fill="#F4EDE8"/>
<path d="M69.5811 43.0062C69.5811 44.0103 69.3343 44.914 68.8408 45.7173C68.3473 46.5206 67.6855 47.1454 66.8555 47.5916C67.2593 47.904 67.6295 48.2722 67.966 48.6962C68.3024 49.0978 68.5829 49.5441 68.8072 50.035C69.0539 50.5259 69.2446 51.028 69.3792 51.5412C69.5138 52.0544 69.5811 52.5565 69.5811 53.0474V55.1895C69.5587 55.9035 69.4129 56.5729 69.1437 57.1977C68.8745 57.8002 68.5043 58.3357 68.0333 58.8043C67.5622 59.2506 67.0126 59.6076 66.3845 59.8754C65.7563 60.1654 65.0834 60.3105 64.3655 60.3105H61.2025C61.0455 60.3105 60.9109 60.2547 60.7987 60.1431C60.709 60.0316 60.6641 59.8977 60.6641 59.7415C60.6641 59.8977 60.6081 60.0316 60.4959 60.1431C60.3837 60.2547 60.2604 60.3105 60.1258 60.3105H58.3424C58.3424 60.1097 58.376 59.9646 58.4433 59.8754C58.533 59.7861 58.6228 59.6857 58.7125 59.5741C58.8022 59.4849 58.8808 59.351 58.9481 59.1725C59.0378 58.994 59.0826 58.7151 59.0826 58.3357V48.9974C59.0153 48.328 58.7013 47.8371 58.1405 47.5247C58.4321 47.3462 58.7462 47.2569 59.0826 47.2569V36.2451C59.0826 35.8658 59.0378 35.5869 58.9481 35.4083C58.8808 35.2298 58.8022 35.0959 58.7125 35.0067C58.6228 34.8951 58.533 34.7947 58.4433 34.7055C58.376 34.6162 58.3424 34.4712 58.3424 34.2703H60.1258C60.2604 34.2703 60.3837 34.3261 60.4959 34.4377C60.6081 34.5269 60.6641 34.6497 60.6641 34.8059C60.6641 34.4489 60.8436 34.2703 61.2025 34.2703H64.3655C65.0834 34.2703 65.7563 34.4042 66.3845 34.672C67.0126 34.9398 67.5622 35.3079 68.0333 35.7765C68.5043 36.2228 68.8745 36.7583 69.1437 37.3831C69.4129 38.0079 69.5587 38.6661 69.5811 39.3579V43.0062ZM60.8997 45.483C60.8997 45.3268 60.8885 45.1818 60.866 45.0479C60.866 44.8917 60.866 44.7466 60.866 44.6128V43.7425C60.8436 43.1624 60.8324 42.6157 60.8324 42.1025C60.8324 41.5893 60.8212 41.1095 60.7987 40.6632C60.7763 40.4178 60.7651 40.1946 60.7651 39.9938C60.7651 39.793 60.7539 39.6033 60.7314 39.4248C60.7314 39.2463 60.7202 39.079 60.6978 38.9228C60.6978 38.7442 60.6978 38.5992 60.6978 38.4876C60.6978 38.3538 60.6866 38.231 60.6641 38.1195C60.6641 38.0079 60.6641 37.9186 60.6641 37.8517V37.6509C60.6417 37.6732 60.6305 37.6955 60.6305 37.7178V37.8517C60.6305 37.9186 60.6193 38.0079 60.5968 38.1195C60.5968 38.231 60.5968 38.3538 60.5968 38.4876C60.5968 38.5992 60.5856 38.7442 60.5632 38.9228C60.5632 39.079 60.5632 39.2463 60.5632 39.4248C60.5408 39.6033 60.5296 39.793 60.5296 39.9938C60.5296 40.1946 60.5183 40.4178 60.4959 40.6632C60.4735 41.1095 60.4623 41.5893 60.4623 42.1025C60.4623 42.6157 60.451 43.1624 60.4286 43.7425V44.6128C60.4286 44.7466 60.4286 44.8917 60.4286 45.0479C60.4286 45.1818 60.4174 45.3268 60.395 45.483V49.0644C60.395 49.1536 60.395 49.2317 60.395 49.2987C60.4174 49.3656 60.4286 49.4437 60.4286 49.5329V50.8048C60.4286 51.0949 60.4286 51.385 60.4286 51.6751C60.451 51.9428 60.4623 52.1994 60.4623 52.4449C60.4623 52.6903 60.4623 52.9358 60.4623 53.1812C60.4847 53.4267 60.4959 53.6721 60.4959 53.9176C60.5183 54.0292 60.5296 54.1407 60.5296 54.2523C60.5296 54.3416 60.5296 54.442 60.5296 54.5535C60.5296 54.6651 60.5296 54.7655 60.5296 54.8548C60.552 54.944 60.5632 55.0333 60.5632 55.1225C60.5632 55.3011 60.5632 55.4796 60.5632 55.6581C60.5856 55.8143 60.5968 55.9593 60.5968 56.0932C60.5968 56.2271 60.5968 56.3498 60.5968 56.4614C60.6193 56.5506 60.6305 56.6287 60.6305 56.6957V56.863C60.6305 56.8853 60.6417 56.9076 60.6641 56.93V56.6957C60.6641 56.6287 60.6641 56.5506 60.6641 56.4614C60.6866 56.3498 60.6978 56.2271 60.6978 56.0932C60.6978 55.9593 60.6978 55.8143 60.6978 55.6581C60.7202 55.4796 60.7314 55.3011 60.7314 55.1225C60.7539 55.0333 60.7651 54.944 60.7651 54.8548C60.7651 54.7655 60.7651 54.6651 60.7651 54.5535C60.7651 54.442 60.7651 54.3416 60.7651 54.2523C60.7875 54.1407 60.7987 54.0292 60.7987 53.9176C60.7987 53.6721 60.7987 53.4267 60.7987 53.1812C60.8212 52.9358 60.8324 52.6903 60.8324 52.4449C60.8324 52.1994 60.8324 51.9428 60.8324 51.6751C60.8548 51.385 60.866 51.0949 60.866 50.8048V49.9681C60.866 49.7672 60.8773 49.6222 60.8997 49.5329V45.483ZM67.8314 54.5201C67.8089 54.587 67.7977 54.6986 67.7977 54.8548V55.4572C67.7977 55.5688 67.7865 55.6692 67.7641 55.7585C67.7641 55.8477 67.7641 55.937 67.7641 56.0262C67.7641 56.1155 67.7528 56.1936 67.7304 56.2605C67.7304 56.3275 67.7304 56.3944 67.7304 56.4614V56.5618C67.708 56.5841 67.6968 56.6176 67.6968 56.6622V56.8295C67.6743 56.8519 67.6631 56.8742 67.6631 56.8965V56.9634C67.6631 56.9857 67.6519 57.0081 67.6295 57.0304C67.6295 57.0304 67.6295 57.0415 67.6295 57.0638C67.6295 57.0861 67.6183 57.1085 67.5958 57.1308H67.6295C67.6295 57.1308 67.6407 57.1085 67.6631 57.0638C67.6631 57.0638 67.6743 57.0415 67.6968 56.9969C67.7192 56.9746 67.7304 56.9523 67.7304 56.93C67.7528 56.9076 67.7641 56.8853 67.7641 56.863C67.7865 56.8407 67.7977 56.8184 67.7977 56.7961C67.8201 56.7738 67.8314 56.7403 67.8314 56.6957C67.8762 56.651 67.8987 56.5952 67.8987 56.5283C67.9435 56.439 67.9884 56.2829 68.0333 56.0597C68.0781 55.9258 68.1006 55.8366 68.1006 55.792C68.123 55.7473 68.1342 55.7027 68.1342 55.6581C68.1342 55.5911 68.1454 55.5353 68.1678 55.4907C68.1678 55.4461 68.1678 55.4015 68.1678 55.3568C68.1903 55.2899 68.2015 55.2341 68.2015 55.1895C68.2239 55.1225 68.2351 55.0221 68.2351 54.8882C68.2576 54.7767 68.2688 54.6651 68.2688 54.5535C68.2688 54.442 68.28 54.3304 68.3024 54.2188V52.8131C68.3024 52.7015 68.2912 52.5899 68.2688 52.4784C68.2688 52.3668 68.2576 52.2552 68.2351 52.1437C68.2351 52.0098 68.2239 51.9094 68.2015 51.8424C68.2015 51.7978 68.1903 51.7532 68.1678 51.7085C68.1678 51.6416 68.1678 51.5858 68.1678 51.5412C68.1454 51.4966 68.1342 51.4519 68.1342 51.4073C68.1342 51.3404 68.123 51.2846 68.1006 51.2399C68.1006 51.1953 68.0893 51.1507 68.0669 51.1061C68.0669 51.0614 68.0669 51.0168 68.0669 50.9722C68.022 50.8383 67.9996 50.7602 67.9996 50.7379C67.9772 50.6709 67.9435 50.5928 67.8987 50.5036C67.8987 50.4367 67.8762 50.3809 67.8314 50.3362C67.8314 50.2693 67.8089 50.2135 67.7641 50.1689C67.7192 50.0796 67.6855 50.0127 67.6631 49.9681C67.6407 49.9457 67.6295 49.9234 67.6295 49.9011H67.5958C67.5958 49.9011 67.607 49.9234 67.6295 49.9681C67.6295 49.9904 67.6295 50.0127 67.6295 50.035C67.6519 50.035 67.6631 50.0462 67.6631 50.0685C67.6631 50.1131 67.6743 50.1577 67.6968 50.2024V50.3697C67.7192 50.4143 67.7304 50.4701 67.7304 50.5371C67.7304 50.6486 67.7416 50.7267 67.7641 50.7714V51.0057C67.7865 51.0949 67.7977 51.1842 67.7977 51.2734C67.7977 51.3627 67.7977 51.4631 67.7977 51.5747V51.8759C67.7977 51.9205 67.7977 51.9763 67.7977 52.0432C67.8201 52.0879 67.8314 52.1325 67.8314 52.1771V54.5201ZM66.4518 53.0474C66.4518 52.7573 66.4405 52.3445 66.4181 51.8089C66.3957 51.2734 66.3172 50.7379 66.1826 50.2024C66.048 49.6668 65.8349 49.2094 65.5432 48.8301C65.274 48.4284 64.8703 48.2276 64.3319 48.2276H63.1205C62.8738 48.2276 62.6606 48.3168 62.4812 48.4954C62.3017 48.6739 62.212 48.8858 62.212 49.1313V57.8337C62.212 58.0791 62.3017 58.2911 62.4812 58.4696C62.6606 58.6258 62.8738 58.7151 63.1205 58.7374H64.3319C64.8703 58.7374 65.274 58.6035 65.5432 58.3357C65.8349 58.0456 66.048 57.7109 66.1826 57.3316C66.3172 56.9523 66.3957 56.5506 66.4181 56.1267C66.4405 55.7027 66.4518 55.3457 66.4518 55.0556V53.0474ZM66.4518 39.4918C66.4518 39.2017 66.4405 38.8558 66.4181 38.4542C66.3957 38.0302 66.3172 37.6286 66.1826 37.2492C66.048 36.8699 65.8349 36.5463 65.5432 36.2786C65.274 35.9885 64.8703 35.8435 64.3319 35.8435H63.1205C62.8738 35.8435 62.6606 35.9327 62.4812 36.1112C62.3017 36.2897 62.212 36.5017 62.212 36.7472V45.7508C62.212 45.9962 62.3017 46.2082 62.4812 46.3867C62.6606 46.5652 62.8738 46.6545 63.1205 46.6545H64.3319C64.8703 46.6545 65.274 46.5206 65.5432 46.2528C65.8349 45.9851 66.048 45.6615 66.1826 45.2822C66.3172 44.8805 66.3957 44.4789 66.4181 44.0772C66.4405 43.6533 66.4518 43.2963 66.4518 43.0062V39.4918ZM67.966 43.9099C68.0108 43.776 68.0333 43.6867 68.0333 43.6421C68.0781 43.5529 68.1006 43.4636 68.1006 43.3744C68.123 43.3297 68.1342 43.2851 68.1342 43.2405C68.1342 43.1735 68.1454 43.1177 68.1678 43.0731C68.1678 43.0285 68.1678 42.9839 68.1678 42.9392C68.1903 42.8723 68.2015 42.8054 68.2015 42.7384C68.2239 42.6715 68.2351 42.5599 68.2351 42.4037C68.2576 42.2921 68.2688 42.1806 68.2688 42.069C68.2688 41.9574 68.28 41.8459 68.3024 41.7343V40.9979C68.3024 40.7525 68.3024 40.5182 68.3024 40.2951C68.3024 40.0496 68.2912 39.8153 68.2688 39.5922C68.2464 39.5252 68.2351 39.4694 68.2351 39.4248C68.2351 39.3579 68.2239 39.3021 68.2015 39.2575C68.2015 39.1013 68.1903 38.9897 68.1678 38.9228C68.1454 38.8112 68.123 38.7108 68.1006 38.6215C68.1006 38.5323 68.0893 38.443 68.0669 38.3538C68.022 38.2199 67.9996 38.1306 67.9996 38.086C67.9547 37.9967 67.9323 37.9298 67.9323 37.8852C67.8874 37.7959 67.8538 37.729 67.8314 37.6843C67.8314 37.6174 67.8089 37.5616 67.7641 37.517C67.7416 37.4501 67.708 37.372 67.6631 37.2827L67.5958 37.2158V37.2492C67.5958 37.2715 67.5958 37.2827 67.5958 37.2827C67.6183 37.2827 67.6295 37.2939 67.6295 37.3162C67.6519 37.3385 67.6631 37.372 67.6631 37.4166C67.6631 37.4612 67.6743 37.5058 67.6968 37.5505V37.7178C67.7192 37.7624 67.7304 37.8294 67.7304 37.9186C67.7304 37.9633 67.7304 38.0079 67.7304 38.0525C67.7528 38.0748 67.7641 38.1083 67.7641 38.1529V38.3872C67.7865 38.4765 67.7977 38.5657 67.7977 38.655C67.7977 38.7442 67.7977 38.8447 67.7977 38.9562V39.2909C67.7977 39.3356 67.7977 39.3913 67.7977 39.4583C67.8201 39.5029 67.8314 39.5475 67.8314 39.5922V42.069C67.8089 42.1359 67.7977 42.2475 67.7977 42.4037V43.0396C67.7977 43.1512 67.7865 43.2516 67.7641 43.3409C67.7641 43.4301 67.7641 43.5194 67.7641 43.6086C67.7641 43.6979 67.7528 43.7872 67.7304 43.8764C67.7304 43.9434 67.7304 44.0103 67.7304 44.0772C67.7304 44.1888 67.7192 44.2557 67.6968 44.2781V44.4789C67.6743 44.4789 67.6631 44.5012 67.6631 44.5458V44.6128C67.6631 44.6351 67.6519 44.6574 67.6295 44.6797C67.6295 44.6797 67.6295 44.6909 67.6295 44.7132C67.6295 44.7355 67.6183 44.7578 67.5958 44.7801L67.6631 44.7132C67.6631 44.6909 67.6631 44.6797 67.6631 44.6797C67.6855 44.6574 67.6968 44.6351 67.6968 44.6128C67.7192 44.6128 67.7304 44.5904 67.7304 44.5458C67.7528 44.5458 67.7641 44.5235 67.7641 44.4789C67.7865 44.4789 67.7977 44.4566 67.7977 44.4119C67.8201 44.3896 67.8314 44.3562 67.8314 44.3115C67.8762 44.2669 67.8987 44.2111 67.8987 44.1442C67.9435 44.0103 67.966 43.9322 67.966 43.9099Z" fill="#F4EDE8"/>
<path d="M82.3085 57.1977C82.3983 57.5771 82.4992 57.856 82.6114 58.0345C82.7235 58.213 82.8357 58.358 82.9479 58.4696C83.06 58.5812 83.161 58.6816 83.2507 58.7708C83.3404 58.8601 83.4077 59.0051 83.4526 59.206H81.6692C81.5122 59.206 81.3664 59.1502 81.2318 59.0386C81.1196 58.927 81.0523 58.7932 81.0299 58.637C81.0523 58.7932 81.0187 58.927 80.9289 59.0386C80.8392 59.1502 80.727 59.206 80.5924 59.206H78.8091C78.7642 59.0051 78.7754 58.8601 78.8427 58.7708C78.91 58.6816 78.9773 58.5923 79.0446 58.5031C79.1119 58.3915 79.168 58.2465 79.2128 58.068C79.2577 57.8671 79.2465 57.5659 79.1792 57.1642V57.1308L78.4389 53.3486C78.394 53.1255 78.2707 52.9358 78.0688 52.7796C77.8669 52.6011 77.6426 52.5118 77.3958 52.5118H75.074C74.8273 52.5118 74.6029 52.6011 74.401 52.7796C74.1992 52.9358 74.0758 53.1255 74.0309 53.3486L73.3243 57.1308V57.1642C73.257 57.5659 73.2346 57.8671 73.257 58.068C73.3018 58.2465 73.3579 58.3915 73.4252 58.5031C73.515 58.5923 73.5823 58.6816 73.6271 58.7708C73.6944 58.8601 73.7169 59.0051 73.6944 59.206H71.911C71.754 59.206 71.6306 59.1502 71.5409 59.0386C71.4512 58.927 71.4175 58.7932 71.4399 58.637C71.4175 58.7932 71.3502 58.927 71.238 59.0386C71.1259 59.1502 70.9913 59.206 70.8343 59.206H69.0509C69.0733 59.0051 69.1294 58.8601 69.2191 58.7708C69.3088 58.6816 69.4098 58.5812 69.522 58.4696C69.6341 58.358 69.7463 58.213 69.8584 58.0345C69.9706 57.856 70.0716 57.5771 70.1613 57.1977L71.6755 49.0644C71.7203 48.752 71.6867 48.4619 71.5745 48.1941C71.4624 47.9264 71.2829 47.7144 71.0362 47.5582C71.3951 47.402 71.7204 47.3239 72.012 47.3239L73.829 37.7848C73.8963 37.4054 73.9075 37.1265 73.8627 36.948C73.8178 36.7472 73.7617 36.6021 73.6944 36.5129C73.6271 36.4013 73.5598 36.3009 73.4925 36.2116C73.4252 36.1224 73.414 35.9773 73.4589 35.7765H75.7134C76.0498 35.8211 76.2181 36.0108 76.2181 36.3455C76.2181 36.1893 76.263 36.0666 76.3527 35.9773C76.4648 35.8658 76.5882 35.7988 76.7228 35.7765H79.0109C79.0558 35.9773 79.0446 36.1224 78.9773 36.2116C78.9324 36.3009 78.8763 36.4013 78.8091 36.5129C78.7418 36.6021 78.6857 36.7472 78.6408 36.948C78.5959 37.1265 78.6072 37.4054 78.6745 37.7848L80.4578 47.3239C80.6373 47.3239 80.8056 47.3462 80.9626 47.3908C81.1196 47.4355 81.2766 47.4912 81.4337 47.5582C80.9401 47.8706 80.727 48.3726 80.7943 49.0644L82.3085 57.1977ZM74.2328 45.2152C74.2777 45.0814 74.3001 44.9586 74.3001 44.8471C74.3225 44.7132 74.345 44.5904 74.3674 44.4789C74.4796 43.9657 74.5693 43.4859 74.6366 43.0396C74.7039 42.5711 74.7712 42.1471 74.8385 41.7678C74.8833 41.5893 74.9058 41.4107 74.9058 41.2322C74.9282 41.0537 74.9506 40.8752 74.9731 40.6967C74.9955 40.5405 75.0179 40.3955 75.0404 40.2616C75.0628 40.1277 75.0852 40.005 75.1077 39.8934C75.1301 39.7818 75.1413 39.6814 75.1413 39.5922C75.1413 39.4806 75.1525 39.3913 75.175 39.3244V39.1905L75.1413 39.3244C75.1189 39.3913 75.0965 39.4694 75.074 39.5587C75.0516 39.648 75.0292 39.7484 75.0067 39.8599C74.9619 39.9715 74.9282 40.1054 74.9058 40.2616C74.8833 40.3955 74.8497 40.5293 74.8048 40.6632C74.76 40.8417 74.7151 41.0203 74.6702 41.1988C74.6478 41.3773 74.6142 41.5558 74.5693 41.7343C74.4571 42.1136 74.345 42.5264 74.2328 42.9727C74.1431 43.3967 74.0421 43.8653 73.93 44.3785C73.93 44.5124 73.9187 44.6351 73.8963 44.7466C73.8739 44.8582 73.8402 44.9809 73.7954 45.1148C73.7729 45.2487 73.7505 45.3826 73.7281 45.5165C73.7056 45.628 73.6832 45.7508 73.6608 45.8846C73.5935 46.1301 73.5262 46.3867 73.4589 46.6545C73.414 46.9222 73.3691 47.19 73.3243 47.4578C73.2794 47.7032 73.2233 47.9598 73.156 48.2276C73.1112 48.4954 73.0663 48.752 73.0214 48.9974C72.999 49.0644 72.9878 49.1313 72.9878 49.1982C72.9878 49.2429 72.9766 49.2987 72.9541 49.3656C72.9093 49.5441 72.8868 49.678 72.8868 49.7672C72.8195 49.9904 72.7747 50.2358 72.7523 50.5036C72.7074 50.749 72.6625 50.9945 72.6177 51.2399C72.5728 51.4854 72.5391 51.7085 72.5167 51.9094C72.4494 52.4226 72.3821 52.8465 72.3148 53.1812C72.2699 53.3598 72.2363 53.5383 72.2139 53.7168C72.1914 53.8953 72.169 54.0738 72.1466 54.2523C72.1017 54.4085 72.0681 54.5647 72.0456 54.7209C72.0456 54.8548 72.0344 54.9775 72.012 55.0891C71.9895 55.2006 71.9783 55.301 71.9783 55.3903C71.9783 55.4796 71.9671 55.5577 71.9447 55.6246C71.9447 55.6692 71.9335 55.7027 71.911 55.725C71.911 55.725 71.911 55.7362 71.911 55.7585V55.792C71.9335 55.792 71.9447 55.7808 71.9447 55.7585C71.9447 55.7139 71.9559 55.6692 71.9783 55.6246C72.0008 55.58 72.012 55.513 72.012 55.4238C72.0344 55.3122 72.0681 55.2006 72.1129 55.0891C72.1578 54.9775 72.1914 54.8548 72.2139 54.7209C72.2587 54.587 72.3036 54.442 72.3485 54.2858C72.3933 54.1296 72.427 53.9622 72.4494 53.7837C72.4943 53.6052 72.5279 53.4267 72.5504 53.2482C72.5952 53.0697 72.6401 52.88 72.685 52.6792C72.7523 52.456 72.8083 52.2329 72.8532 52.0098C72.8981 51.7866 72.9429 51.5523 72.9878 51.3069C73.0551 51.0614 73.1224 50.816 73.1897 50.5705C73.2121 50.459 73.2346 50.3474 73.257 50.2358C73.2794 50.1019 73.3018 49.9792 73.3243 49.8677L73.4252 49.466C73.4477 49.3991 73.4589 49.3321 73.4589 49.2652C73.4589 49.1982 73.4701 49.1313 73.4925 49.0644C73.5374 48.8189 73.5935 48.5735 73.6608 48.328C73.7281 48.0602 73.7842 47.7925 73.829 47.5247C73.8739 47.2793 73.9187 47.0226 73.9636 46.7549C74.0085 46.4871 74.0533 46.2305 74.0982 45.9851C74.1206 45.8512 74.1431 45.7173 74.1655 45.5834C74.1879 45.4495 74.2104 45.3268 74.2328 45.2152ZM77.093 50.9387C77.3397 50.9164 77.5304 50.8271 77.665 50.6709C77.822 50.4924 77.8781 50.2805 77.8332 50.035L77.6313 49.0644C77.5416 48.752 77.3846 48.4619 77.1603 48.1941C76.9584 47.9264 76.7116 47.7144 76.42 47.5582C76.6892 47.402 76.9808 47.3239 77.2949 47.3239L76.2181 41.6004L75.1413 47.3239C75.4329 47.3239 75.7358 47.402 76.0498 47.5582C75.7358 47.7144 75.4666 47.9264 75.2423 48.1941C75.0404 48.4619 74.9058 48.752 74.8385 49.0644L74.6702 50.035C74.6254 50.2805 74.6702 50.4924 74.8048 50.6709C74.9394 50.8271 75.1189 50.9164 75.3432 50.9387H77.093ZM80.4915 55.6246C80.4915 55.6692 80.4915 55.7027 80.4915 55.725C80.5139 55.725 80.5251 55.7362 80.5251 55.7585V55.6246C80.5027 55.5577 80.4915 55.4796 80.4915 55.3903C80.4915 55.301 80.4803 55.2006 80.4578 55.0891C80.4354 54.9775 80.413 54.8548 80.3906 54.7209C80.3906 54.5647 80.3681 54.4085 80.3233 54.2523C80.3008 54.0738 80.2784 53.8953 80.256 53.7168C80.2335 53.5383 80.1999 53.3598 80.155 53.1812C80.0877 52.8465 80.0204 52.4226 79.9531 51.9094C79.9083 51.7085 79.8634 51.4854 79.8185 51.2399C79.7961 50.9945 79.7624 50.749 79.7176 50.5036C79.6727 50.3697 79.6391 50.247 79.6166 50.1354C79.6166 50.0238 79.5942 49.9011 79.5493 49.7672C79.5493 49.678 79.5269 49.5441 79.482 49.3656C79.482 49.2987 79.4708 49.2429 79.4484 49.1982C79.4484 49.1313 79.4484 49.0644 79.4484 48.9974C79.4035 48.752 79.3474 48.4954 79.2801 48.2276C79.2353 47.9598 79.1904 47.7032 79.1455 47.4578C79.1007 47.19 79.0446 46.9222 78.9773 46.6545C78.9324 46.3867 78.8763 46.1301 78.8091 45.8846C78.7866 45.7508 78.7642 45.628 78.7418 45.5165C78.7193 45.3826 78.6969 45.2487 78.6745 45.1148C78.6296 44.9809 78.5959 44.8582 78.5735 44.7466C78.5511 44.6351 78.5286 44.5124 78.5062 44.3785C78.394 43.8653 78.2819 43.3967 78.1697 42.9727C78.08 42.5264 78.0015 42.1136 77.9342 41.7343C77.8893 41.5558 77.8444 41.3773 77.7996 41.1988C77.7547 41.0203 77.7099 40.8417 77.665 40.6632C77.6201 40.5293 77.5753 40.3955 77.5304 40.2616C77.508 40.1054 77.4743 39.9715 77.4294 39.8599C77.407 39.7484 77.3846 39.648 77.3621 39.5587C77.3397 39.4694 77.3173 39.3913 77.2949 39.3244L77.2612 39.1905V39.3244C77.2836 39.436 77.3173 39.6256 77.3621 39.8934C77.3621 40.005 77.3734 40.1277 77.3958 40.2616C77.4182 40.3955 77.4407 40.5405 77.4631 40.6967C77.4855 40.8752 77.508 41.0537 77.5304 41.2322C77.5528 41.4107 77.5865 41.5893 77.6313 41.7678C77.6986 42.1471 77.7659 42.5711 77.8332 43.0396C77.9005 43.4859 77.979 43.9657 78.0688 44.4789C78.0912 44.5904 78.1024 44.7132 78.1024 44.8471C78.1249 44.9586 78.1585 45.0814 78.2034 45.2152C78.2258 45.3268 78.2482 45.4495 78.2707 45.5834C78.2931 45.7173 78.3155 45.8512 78.338 45.9851C78.3828 46.2305 78.4277 46.4871 78.4726 46.7549C78.5399 47.0226 78.5959 47.2793 78.6408 47.5247C78.6857 47.7925 78.7418 48.0602 78.8091 48.328C78.8763 48.5735 78.9324 48.8189 78.9773 49.0644C78.9997 49.1313 79.0109 49.1982 79.0109 49.2652C79.0109 49.3321 79.0222 49.3991 79.0446 49.466L79.1455 49.8677C79.168 49.9792 79.1904 50.1019 79.2128 50.2358C79.2353 50.3474 79.2577 50.459 79.2801 50.5705C79.3474 50.816 79.4035 51.0614 79.4484 51.3069C79.4932 51.5523 79.5381 51.7866 79.583 52.0098C79.6278 52.2329 79.6727 52.456 79.7176 52.6792C79.7849 52.88 79.8409 53.0697 79.8858 53.2482C79.9307 53.4267 79.9755 53.6052 80.0204 53.7837C80.0653 53.9622 80.1101 54.1296 80.155 54.2858C80.2223 54.5982 80.2896 54.8659 80.3569 55.0891C80.4018 55.2006 80.4242 55.3122 80.4242 55.4238C80.4466 55.513 80.4691 55.58 80.4915 55.6246Z" fill="#F4EDE8"/>
<path d="M96.4266 60.6117C96.6734 60.6563 96.8416 60.7344 96.9314 60.846C97.0435 60.9576 97.122 61.0692 97.1669 61.1807C97.2118 61.3146 97.2342 61.4596 97.2342 61.6158C96.5163 61.6158 95.8434 61.5266 95.2153 61.3481C94.5871 61.1696 94.0263 60.8795 93.5328 60.4778C93.0617 60.0762 92.6804 59.5518 92.3887 58.9047C92.1196 58.2576 91.985 57.4655 91.985 56.5283V51.9428C91.985 51.6528 91.9737 51.2957 91.9513 50.8718C91.9289 50.4478 91.8504 50.0462 91.7158 49.6668C91.5812 49.2875 91.3681 48.9639 91.0764 48.6962C90.8073 48.4061 90.4035 48.2611 89.8651 48.2611H88.4855C88.2836 48.3057 88.1041 48.4173 87.9471 48.5958C87.8125 48.752 87.7452 48.9416 87.7452 49.1648V57.1642C87.7452 57.5659 87.7788 57.8671 87.8461 58.068C87.9359 58.2465 88.0256 58.3915 88.1153 58.5031C88.2051 58.5923 88.2836 58.6816 88.3509 58.7708C88.4406 58.8601 88.4855 59.0051 88.4855 59.206H86.7021C86.5675 59.206 86.4441 59.1502 86.3319 59.0386C86.2198 58.927 86.1637 58.8043 86.1637 58.6704C86.1637 58.8043 86.1076 58.927 85.9955 59.0386C85.9057 59.1502 85.7823 59.206 85.6253 59.206H83.8756C83.8756 59.0051 83.9092 58.8601 83.9765 58.7708C84.0663 58.6816 84.156 58.5923 84.2457 58.5031C84.3354 58.3915 84.414 58.2465 84.4813 58.068C84.571 57.8894 84.6159 57.6105 84.6159 57.2312V49.0644C84.5486 48.3726 84.2345 47.8706 83.6737 47.5582C83.9204 47.402 84.2345 47.3239 84.6159 47.3239V37.7513C84.6159 37.372 84.571 37.093 84.4813 36.9145C84.414 36.736 84.3354 36.6021 84.2457 36.5129C84.156 36.4013 84.0663 36.3009 83.9765 36.2116C83.9092 36.1224 83.8756 35.9773 83.8756 35.7765H85.659C85.7936 35.7765 85.9169 35.8323 86.0291 35.9439C86.1413 36.0331 86.1973 36.1559 86.1973 36.312C86.1973 35.955 86.3768 35.7765 86.7357 35.7765H89.8987C90.6166 35.7765 91.2896 35.9104 91.9177 36.1782C92.5458 36.4459 93.0954 36.8141 93.5665 37.2827C94.0375 37.729 94.4077 38.2645 94.6769 38.8893C94.9461 39.5141 95.0919 40.1723 95.1143 40.8641V43.0396C95.1143 43.9768 94.89 44.8359 94.4413 45.6169C93.9927 46.3979 93.387 47.0226 92.6243 47.4912C93.387 47.9375 93.9927 48.5623 94.4413 49.3656C94.89 50.1466 95.1143 51.0057 95.1143 51.9428V56.3944C95.1143 56.863 95.1143 57.3428 95.1143 57.8337C95.1367 58.3022 95.1928 58.7374 95.2826 59.139C95.3723 59.5183 95.5069 59.8419 95.6863 60.1097C95.8658 60.3774 96.1126 60.5448 96.4266 60.6117ZM93.3646 42.4706C93.3421 42.5153 93.3309 42.5711 93.3309 42.638V43.4078C93.3085 43.4971 93.2973 43.5863 93.2973 43.6756C93.2973 43.7425 93.2973 43.8095 93.2973 43.8764C93.2973 43.921 93.2861 43.9545 93.2636 43.9768C93.2636 43.9991 93.2636 44.0326 93.2636 44.0772V44.2781C93.2412 44.3227 93.23 44.3785 93.23 44.4454C93.23 44.49 93.2188 44.5347 93.1963 44.5793C93.1963 44.6239 93.1851 44.6574 93.1627 44.6797V44.7466L93.129 44.8136C93.129 44.8136 93.1515 44.8024 93.1963 44.7801V44.7466L93.23 44.7132C93.2524 44.6909 93.2636 44.6797 93.2636 44.6797C93.2636 44.6574 93.2748 44.6351 93.2973 44.6128C93.3197 44.5681 93.3421 44.5235 93.3646 44.4789C93.387 44.4119 93.4094 44.3562 93.4319 44.3115C93.4543 44.2669 93.4655 44.2446 93.4655 44.2446C93.4655 44.2223 93.4767 44.1888 93.4992 44.1442C93.5216 44.0995 93.5328 44.0661 93.5328 44.0438C93.5328 43.9991 93.544 43.9545 93.5665 43.9099C93.5889 43.8653 93.6001 43.8318 93.6001 43.8095C93.6001 43.7872 93.6113 43.7537 93.6338 43.7091C93.6338 43.6644 93.6338 43.631 93.6338 43.6086C93.6562 43.564 93.6674 43.5194 93.6674 43.4748C93.6898 43.3855 93.7011 43.2963 93.7011 43.207C93.7235 43.1177 93.7459 43.0285 93.7684 42.9392C93.7908 42.8723 93.802 42.7719 93.802 42.638C93.802 42.5934 93.802 42.5487 93.802 42.5041C93.8244 42.4595 93.8357 42.4149 93.8357 42.3702V41.1988C93.8357 41.0649 93.8244 40.9645 93.802 40.8975V40.7636C93.802 40.719 93.7908 40.6967 93.7684 40.6967C93.7684 40.6744 93.7684 40.6409 93.7684 40.5963C93.7684 40.4847 93.7459 40.3174 93.7011 40.0942C93.6786 40.0496 93.6674 40.005 93.6674 39.9603C93.6674 39.9157 93.6562 39.8711 93.6338 39.8265C93.6338 39.8042 93.6225 39.793 93.6001 39.793C93.6001 39.7707 93.6001 39.7484 93.6001 39.7261C93.6001 39.7037 93.5889 39.6926 93.5665 39.6926C93.5665 39.6703 93.5665 39.648 93.5665 39.6256C93.544 39.581 93.5328 39.5475 93.5328 39.5252C93.5328 39.5029 93.5216 39.4694 93.4992 39.4248C93.4767 39.3802 93.4655 39.3467 93.4655 39.3244C93.4655 39.3021 93.4543 39.2686 93.4319 39.224C93.4094 39.2017 93.3982 39.1794 93.3982 39.1571C93.3982 39.1347 93.387 39.1124 93.3646 39.0901C93.3197 39.0009 93.2973 38.9562 93.2973 38.9562C93.2748 38.9339 93.2636 38.9228 93.2636 38.9228C93.2636 38.9004 93.2524 38.8781 93.23 38.8558C93.2075 38.8335 93.1963 38.8112 93.1963 38.7889C93.1739 38.7666 93.1627 38.7442 93.1627 38.7219H93.129C93.129 38.7219 93.1402 38.7442 93.1627 38.7889V38.8558C93.1851 38.8781 93.1963 38.9228 93.1963 38.9897C93.1963 39.012 93.1963 39.0343 93.1963 39.0566C93.2188 39.0566 93.23 39.079 93.23 39.1236C93.23 39.1905 93.2412 39.2463 93.2636 39.2909V39.4583C93.2636 39.5029 93.2636 39.5364 93.2636 39.5587C93.2861 39.581 93.2973 39.6145 93.2973 39.6591C93.2973 39.8599 93.3085 40.0161 93.3309 40.1277V40.6632C93.3533 40.7748 93.3646 40.9533 93.3646 41.1988V42.4706ZM86.4329 45.9181C86.4329 45.8065 86.4217 45.6838 86.3992 45.5499C86.3992 45.4161 86.3992 45.2822 86.3992 45.1483V44.4119C86.3768 43.921 86.3656 43.4524 86.3656 43.0062C86.3656 42.5599 86.3544 42.1359 86.3319 41.7343C86.3095 41.5558 86.2983 41.3773 86.2983 41.1988C86.2983 41.0203 86.2871 40.8529 86.2647 40.6967C86.2647 40.5182 86.2534 40.362 86.231 40.2281C86.231 40.0942 86.231 39.9715 86.231 39.8599C86.231 39.7484 86.2198 39.648 86.1973 39.5587C86.1973 39.4694 86.1973 39.3913 86.1973 39.3244V39.1571C86.1749 39.1571 86.1637 39.1682 86.1637 39.1905V39.3244C86.1637 39.3913 86.1525 39.4694 86.1301 39.5587C86.1301 39.648 86.1301 39.7484 86.1301 39.8599C86.1301 39.9715 86.1188 40.0942 86.0964 40.2281C86.0964 40.362 86.0964 40.5182 86.0964 40.6967C86.074 40.8529 86.0628 41.0203 86.0628 41.1988C86.0628 41.3773 86.0515 41.5558 86.0291 41.7343C86.0067 42.1359 85.9955 42.5599 85.9955 43.0062C85.9955 43.4524 85.9842 43.921 85.9618 44.4119V45.1483C85.9618 45.2822 85.9506 45.4161 85.9282 45.5499C85.9282 45.6838 85.9282 45.8065 85.9282 45.9181V49.0309C85.9282 49.2094 85.9394 49.3433 85.9618 49.4325V50.5371C85.9618 50.7825 85.9618 51.028 85.9618 51.2734C85.9842 51.4966 85.9955 51.7197 85.9955 51.9428C85.9955 52.1883 85.9955 52.4114 85.9955 52.6122C86.0179 52.8131 86.0291 53.0139 86.0291 53.2147C86.0515 53.4155 86.0628 53.6052 86.0628 53.7837C86.0628 53.9399 86.074 54.1073 86.0964 54.2858C86.0964 54.442 86.0964 54.587 86.0964 54.7209C86.1188 54.8548 86.1301 54.9775 86.1301 55.0891C86.1301 55.2006 86.1301 55.3122 86.1301 55.4238C86.1525 55.513 86.1637 55.58 86.1637 55.6246V55.792C86.1637 55.8143 86.1749 55.8254 86.1973 55.8254V55.6246C86.1973 55.58 86.1973 55.513 86.1973 55.4238C86.2198 55.3122 86.231 55.2006 86.231 55.0891C86.231 54.9775 86.231 54.8548 86.231 54.7209C86.2534 54.587 86.2647 54.442 86.2647 54.2858C86.2871 54.1073 86.2983 53.9399 86.2983 53.7837C86.2983 53.6052 86.3095 53.4155 86.3319 53.2147C86.3319 53.0139 86.3319 52.8131 86.3319 52.6122C86.3544 52.4114 86.3656 52.1883 86.3656 51.9428C86.3656 51.7197 86.3656 51.4966 86.3656 51.2734C86.388 51.028 86.3992 50.7825 86.3992 50.5371V49.8007C86.3992 49.6222 86.4105 49.4995 86.4329 49.4325V45.9181ZM91.985 40.9979C91.985 40.7079 91.9737 40.3508 91.9513 39.9269C91.9289 39.5029 91.8504 39.1013 91.7158 38.7219C91.5812 38.3426 91.3681 38.0191 91.0764 37.7513C90.8073 37.4612 90.4035 37.3162 89.8651 37.3162H88.6537C88.407 37.3385 88.1939 37.4389 88.0144 37.6174C87.8349 37.7959 87.7452 38.0079 87.7452 38.2533V45.7842C87.7452 46.0297 87.8349 46.2417 88.0144 46.4202C88.1939 46.5987 88.407 46.6879 88.6537 46.6879H89.8651C90.4035 46.6879 90.8073 46.5541 91.0764 46.2863C91.3681 46.0185 91.5812 45.695 91.7158 45.3156C91.8504 44.914 91.9289 44.5124 91.9513 44.1107C91.9737 43.6867 91.985 43.3297 91.985 43.0396V40.9979ZM94.2394 59.3398C94.2394 59.3398 94.2282 59.3287 94.2058 59.3064L94.1721 59.2729C94.1497 59.2283 94.1273 59.1836 94.1048 59.139C94.1048 59.0944 94.0824 59.0498 94.0375 59.0051C94.0151 58.9382 93.9927 58.8713 93.9702 58.8043C93.9478 58.7151 93.9254 58.6146 93.903 58.5031C93.8581 58.2799 93.8357 58.068 93.8357 57.8671C93.8132 57.7556 93.802 57.644 93.802 57.5324C93.802 57.3985 93.802 57.2535 93.802 57.0973V55.3234C93.802 55.1672 93.802 55.011 93.802 54.8548C93.802 54.6986 93.8132 54.5312 93.8357 54.3527C93.8357 54.1965 93.8357 54.0403 93.8357 53.8841C93.8357 53.7279 93.8244 53.5717 93.802 53.4155V52.9469C93.802 52.7238 93.7908 52.5676 93.7684 52.4784C93.7684 52.3222 93.7571 52.1771 93.7347 52.0432C93.7347 51.887 93.7235 51.742 93.7011 51.6081C93.6562 51.2957 93.6113 51.028 93.5665 50.8048C93.544 50.6933 93.5216 50.5928 93.4992 50.5036C93.4767 50.392 93.4431 50.2805 93.3982 50.1689C93.3533 50.0573 93.3197 49.9681 93.2973 49.9011C93.2748 49.8342 93.2412 49.7672 93.1963 49.7003C93.1515 49.6334 93.1178 49.5776 93.0954 49.5329C93.0729 49.4883 93.0505 49.4437 93.0281 49.3991C93.0056 49.3991 92.9832 49.3879 92.9608 49.3656C92.9383 49.3656 92.9271 49.3544 92.9271 49.3321L92.9608 49.3656C92.9608 49.3879 92.972 49.4102 92.9944 49.4325C92.9944 49.4548 92.9944 49.4772 92.9944 49.4995C93.0169 49.4995 93.0281 49.5218 93.0281 49.5664C93.0505 49.5887 93.0617 49.611 93.0617 49.6334C93.0617 49.6557 93.0729 49.6891 93.0954 49.7338C93.1178 49.823 93.1515 49.9792 93.1963 50.2024C93.2188 50.3139 93.23 50.4255 93.23 50.5371C93.2524 50.6486 93.2748 50.7602 93.2973 50.8718C93.2973 50.9833 93.2973 51.1061 93.2973 51.2399C93.3197 51.3515 93.3309 51.4854 93.3309 51.6416V55.792C93.3309 55.8812 93.3309 55.9593 93.3309 56.0262C93.3533 56.0932 93.3646 56.1713 93.3646 56.2605C93.3646 56.4167 93.3646 56.5729 93.3646 56.7291C93.387 56.863 93.4094 56.9969 93.4319 57.1308C93.4543 57.2647 93.4655 57.3985 93.4655 57.5324C93.4879 57.6663 93.5104 57.789 93.5328 57.9006C93.5777 58.0345 93.6113 58.1572 93.6338 58.2688C93.6562 58.358 93.6898 58.4584 93.7347 58.57C93.7796 58.6816 93.8132 58.7708 93.8357 58.8378C93.8581 58.9047 93.8917 58.9717 93.9366 59.0386L94.0039 59.1055C94.0263 59.1279 94.0375 59.1502 94.0375 59.1725C94.0375 59.1725 94.0488 59.1836 94.0712 59.206L94.2058 59.3398H94.2394Z" fill="#F4EDE8"/>
<path d="M106.516 43.0396C106.516 43.9768 106.292 44.8359 105.843 45.6169C105.394 46.3979 104.789 47.0226 104.026 47.4912C104.789 47.9375 105.394 48.5623 105.843 49.3656C106.292 50.1466 106.516 51.0057 106.516 51.9428V54.1184C106.494 54.8325 106.348 55.5019 106.079 56.1267C105.809 56.7291 105.439 57.2647 104.968 57.7332C104.497 58.1795 103.947 58.5365 103.319 58.8043C102.691 59.0721 102.018 59.206 101.3 59.206H98.1038C97.9692 59.206 97.8458 59.1502 97.7337 59.0386C97.6215 58.927 97.5654 58.8043 97.5654 58.6704C97.5654 58.8043 97.5093 58.927 97.3972 59.0386C97.3074 59.1502 97.1841 59.206 97.027 59.206H95.2773C95.2773 59.0051 95.3109 58.8601 95.3782 58.7708C95.468 58.6816 95.5577 58.5923 95.6474 58.5031C95.7372 58.3915 95.8157 58.2465 95.883 58.068C95.9727 57.8894 96.0176 57.6105 96.0176 57.2312V49.0644C95.9503 48.3726 95.6362 47.8706 95.0754 47.5582C95.3222 47.402 95.6362 47.3239 96.0176 47.3239V37.7513C96.0176 37.372 95.9727 37.093 95.883 36.9145C95.8157 36.736 95.7372 36.6021 95.6474 36.5129C95.5577 36.4013 95.468 36.3009 95.3782 36.2116C95.3109 36.1224 95.2773 35.9773 95.2773 35.7765H97.0607C97.1953 35.7765 97.3187 35.8323 97.4308 35.9439C97.543 36.0331 97.5991 36.1559 97.5991 36.312C97.5991 35.955 97.7785 35.7765 98.1375 35.7765H101.3C102.018 35.7765 102.691 35.9104 103.319 36.1782C103.947 36.4459 104.497 36.8141 104.968 37.2827C105.439 37.729 105.809 38.2645 106.079 38.8893C106.348 39.5141 106.494 40.1723 106.516 40.8641V43.0396ZM97.8346 45.9181C97.8346 45.8065 97.8234 45.6838 97.801 45.5499C97.801 45.4161 97.801 45.2822 97.801 45.1483V44.4119C97.7785 43.921 97.7673 43.4524 97.7673 43.0062C97.7673 42.5599 97.7561 42.1359 97.7337 41.7343C97.7112 41.5558 97.7 41.3773 97.7 41.1988C97.7 41.0203 97.6888 40.8529 97.6664 40.6967C97.6664 40.5182 97.6552 40.362 97.6327 40.2281C97.6327 40.0942 97.6327 39.9715 97.6327 39.8599C97.6327 39.7484 97.6215 39.648 97.5991 39.5587C97.5991 39.4694 97.5991 39.3913 97.5991 39.3244V39.1571C97.5766 39.1571 97.5654 39.1682 97.5654 39.1905V39.3244C97.5654 39.3913 97.5542 39.4694 97.5318 39.5587C97.5318 39.648 97.5318 39.7484 97.5318 39.8599C97.5318 39.9715 97.5206 40.0942 97.4981 40.2281C97.4981 40.362 97.4981 40.5182 97.4981 40.6967C97.4757 40.8529 97.4645 41.0203 97.4645 41.1988C97.4645 41.3773 97.4533 41.5558 97.4308 41.7343C97.4084 42.1359 97.3972 42.5599 97.3972 43.0062C97.3972 43.4524 97.386 43.921 97.3635 44.4119V45.1483C97.3635 45.2822 97.3523 45.4161 97.3299 45.5499C97.3299 45.6838 97.3299 45.8065 97.3299 45.9181V49.0309C97.3299 49.2094 97.3411 49.3433 97.3635 49.4325V50.5371C97.3635 50.7825 97.3635 51.028 97.3635 51.2734C97.386 51.4966 97.3972 51.7197 97.3972 51.9428C97.3972 52.1883 97.3972 52.4114 97.3972 52.6122C97.4196 52.8131 97.4308 53.0139 97.4308 53.2147C97.4533 53.4155 97.4645 53.6052 97.4645 53.7837C97.4645 53.9399 97.4757 54.1073 97.4981 54.2858C97.4981 54.442 97.4981 54.587 97.4981 54.7209C97.5206 54.8548 97.5318 54.9775 97.5318 55.0891C97.5318 55.2006 97.5318 55.3122 97.5318 55.4238C97.5542 55.513 97.5654 55.58 97.5654 55.6246V55.792C97.5654 55.8143 97.5766 55.8254 97.5991 55.8254V55.6246C97.5991 55.58 97.5991 55.513 97.5991 55.4238C97.6215 55.3122 97.6327 55.2006 97.6327 55.0891C97.6327 54.9775 97.6327 54.8548 97.6327 54.7209C97.6552 54.587 97.6664 54.442 97.6664 54.2858C97.6888 54.1073 97.7 53.9399 97.7 53.7837C97.7 53.6052 97.7112 53.4155 97.7337 53.2147C97.7337 53.0139 97.7337 52.8131 97.7337 52.6122C97.7561 52.4114 97.7673 52.1883 97.7673 51.9428C97.7673 51.7197 97.7673 51.4966 97.7673 51.2734C97.7898 51.028 97.801 50.7825 97.801 50.5371V49.8007C97.801 49.6222 97.8122 49.4995 97.8346 49.4325V45.9181ZM104.766 53.6833C104.744 53.7279 104.733 53.7837 104.733 53.8507V54.6205C104.71 54.7097 104.699 54.799 104.699 54.8882C104.699 54.9552 104.699 55.0221 104.699 55.0891C104.699 55.1337 104.688 55.1672 104.665 55.1895C104.665 55.2118 104.665 55.2453 104.665 55.2899V55.4907C104.643 55.5353 104.632 55.5911 104.632 55.6581C104.632 55.7027 104.62 55.7473 104.598 55.792C104.598 55.8366 104.587 55.87 104.564 55.8924V55.9593L104.531 56.0262C104.531 56.0262 104.553 56.0151 104.598 55.9928V55.9593L104.632 55.9258C104.654 55.9035 104.665 55.8924 104.665 55.8924C104.665 55.87 104.677 55.8477 104.699 55.8254C104.721 55.7808 104.744 55.7362 104.766 55.6915C104.789 55.6246 104.811 55.5688 104.834 55.5242C104.856 55.4796 104.867 55.4572 104.867 55.4572C104.867 55.4349 104.878 55.4015 104.901 55.3568C104.923 55.3122 104.935 55.2787 104.935 55.2564C104.935 55.2341 104.946 55.2006 104.968 55.156C104.991 55.1114 105.002 55.0779 105.002 55.0556C105.002 55.011 105.013 54.9663 105.035 54.9217C105.035 54.8771 105.035 54.8436 105.035 54.8213C105.058 54.7767 105.069 54.732 105.069 54.6874C105.092 54.5982 105.103 54.5089 105.103 54.4197C105.125 54.3304 105.148 54.2411 105.17 54.1519C105.193 54.085 105.204 53.9845 105.204 53.8507C105.204 53.806 105.204 53.7614 105.204 53.7168C105.226 53.6721 105.237 53.6275 105.237 53.5829V52.4114C105.237 52.2775 105.226 52.1771 105.204 52.1102V51.9763C105.204 51.9317 105.193 51.9094 105.17 51.9094C105.17 51.887 105.17 51.8647 105.17 51.8424C105.17 51.7309 105.159 51.6416 105.136 51.5747C105.136 51.4854 105.125 51.3961 105.103 51.3069C105.08 51.2623 105.069 51.2176 105.069 51.173C105.069 51.1284 105.058 51.0838 105.035 51.0391C105.035 51.0168 105.024 51.0057 105.002 51.0057C105.002 50.9833 105.002 50.961 105.002 50.9387C105.002 50.9164 104.991 50.9052 104.968 50.9052C104.968 50.8829 104.968 50.8606 104.968 50.8383C104.946 50.7937 104.935 50.7602 104.935 50.7379C104.935 50.7156 104.923 50.6821 104.901 50.6375C104.878 50.5928 104.867 50.5594 104.867 50.5371C104.867 50.5148 104.856 50.4813 104.834 50.4367C104.811 50.4143 104.8 50.392 104.8 50.3697C104.8 50.3474 104.789 50.3251 104.766 50.3028C104.721 50.2135 104.699 50.1689 104.699 50.1689C104.677 50.1466 104.665 50.1354 104.665 50.1354C104.665 50.1131 104.654 50.0908 104.632 50.0685C104.609 50.0462 104.598 50.0238 104.598 50.0015L104.531 49.9346C104.531 49.9346 104.542 49.9569 104.564 50.0015V50.0685C104.587 50.0908 104.598 50.1354 104.598 50.2024C104.598 50.2247 104.598 50.247 104.598 50.2693C104.62 50.2693 104.632 50.2916 104.632 50.3362C104.632 50.4032 104.643 50.459 104.665 50.5036V50.6709C104.665 50.7156 104.665 50.749 104.665 50.7714C104.688 50.7937 104.699 50.8271 104.699 50.8718C104.699 51.0726 104.71 51.2288 104.733 51.3404V51.8759C104.755 51.9875 104.766 52.166 104.766 52.4114V53.6833ZM103.387 51.9428C103.387 51.6528 103.375 51.2957 103.353 50.8718C103.331 50.4478 103.252 50.0462 103.117 49.6668C102.983 49.2875 102.77 48.9639 102.478 48.6962C102.209 48.4061 101.805 48.2611 101.267 48.2611H100.055C99.8087 48.2834 99.5956 48.3838 99.4161 48.5623C99.2367 48.7408 99.1469 48.9528 99.1469 49.1982V56.7291C99.1469 56.9746 99.2367 57.1866 99.4161 57.3651C99.5956 57.5436 99.8087 57.6328 100.055 57.6328H101.267C101.805 57.6328 102.209 57.499 102.478 57.2312C102.77 56.9634 102.983 56.6399 103.117 56.2605C103.252 55.8589 103.331 55.4572 103.353 55.0556C103.375 54.6316 103.387 54.2746 103.387 53.9845V51.9428ZM103.387 40.9979C103.387 40.7079 103.375 40.3508 103.353 39.9269C103.331 39.5029 103.252 39.1013 103.117 38.7219C102.983 38.3426 102.77 38.0191 102.478 37.7513C102.209 37.4612 101.805 37.3162 101.267 37.3162H100.055C99.8087 37.3385 99.5956 37.4389 99.4161 37.6174C99.2367 37.7959 99.1469 38.0079 99.1469 38.2533V45.7842C99.1469 46.0297 99.2367 46.2417 99.4161 46.4202C99.5956 46.5987 99.8087 46.6879 100.055 46.6879H101.267C101.805 46.6879 102.209 46.5541 102.478 46.2863C102.77 46.0185 102.983 45.695 103.117 45.3156C103.252 44.914 103.331 44.5124 103.353 44.1107C103.375 43.6867 103.387 43.3297 103.387 43.0396V40.9979ZM104.834 44.3115C104.856 44.2669 104.867 44.2446 104.867 44.2446C104.867 44.2223 104.878 44.1888 104.901 44.1442C104.923 44.0995 104.935 44.0661 104.935 44.0438C104.935 43.9991 104.946 43.9545 104.968 43.9099C104.991 43.8653 105.002 43.8318 105.002 43.8095C105.002 43.7872 105.013 43.7537 105.035 43.7091C105.035 43.6644 105.035 43.631 105.035 43.6086C105.058 43.564 105.069 43.5194 105.069 43.4748C105.092 43.3855 105.103 43.2963 105.103 43.207C105.125 43.1177 105.148 43.0285 105.17 42.9392C105.193 42.8723 105.204 42.7719 105.204 42.638C105.204 42.5934 105.204 42.5487 105.204 42.5041C105.226 42.4595 105.237 42.4149 105.237 42.3702V41.1988C105.237 41.0649 105.226 40.9645 105.204 40.8975V40.7636C105.204 40.719 105.193 40.6967 105.17 40.6967C105.17 40.6744 105.17 40.6409 105.17 40.5963C105.17 40.4847 105.148 40.3174 105.103 40.0942C105.08 40.0496 105.069 40.005 105.069 39.9603C105.069 39.9157 105.058 39.8711 105.035 39.8265C105.035 39.8042 105.024 39.793 105.002 39.793C105.002 39.7707 105.002 39.7484 105.002 39.7261C105.002 39.7037 104.991 39.6926 104.968 39.6926C104.968 39.6703 104.968 39.648 104.968 39.6256C104.946 39.581 104.935 39.5475 104.935 39.5252C104.935 39.5029 104.923 39.4694 104.901 39.4248C104.878 39.3802 104.867 39.3467 104.867 39.3244C104.867 39.3021 104.856 39.2686 104.834 39.224C104.811 39.2017 104.8 39.1794 104.8 39.1571C104.8 39.1347 104.789 39.1124 104.766 39.0901C104.721 39.0009 104.699 38.9562 104.699 38.9562C104.677 38.9339 104.665 38.9228 104.665 38.9228C104.665 38.9004 104.654 38.8781 104.632 38.8558C104.609 38.8335 104.598 38.8112 104.598 38.7889C104.576 38.7666 104.564 38.7442 104.564 38.7219H104.531C104.531 38.7219 104.542 38.7442 104.564 38.7889V38.8558C104.587 38.8781 104.598 38.9228 104.598 38.9897C104.598 39.012 104.598 39.0343 104.598 39.0566C104.62 39.0566 104.632 39.079 104.632 39.1236C104.632 39.1905 104.643 39.2463 104.665 39.2909V39.4583C104.665 39.5029 104.665 39.5364 104.665 39.5587C104.688 39.581 104.699 39.6145 104.699 39.6591C104.699 39.8599 104.71 40.0161 104.733 40.1277V40.6632C104.755 40.7748 104.766 40.9533 104.766 41.1988V42.4706C104.744 42.5153 104.733 42.5711 104.733 42.638V43.4078C104.71 43.4971 104.699 43.5863 104.699 43.6756C104.699 43.7425 104.699 43.8095 104.699 43.8764C104.699 43.921 104.688 43.9545 104.665 43.9768C104.665 43.9991 104.665 44.0326 104.665 44.0772V44.2781C104.643 44.3227 104.632 44.3785 104.632 44.4454C104.632 44.49 104.62 44.5347 104.598 44.5793C104.598 44.6239 104.587 44.6574 104.564 44.6797V44.7466L104.531 44.8136C104.531 44.8136 104.553 44.8024 104.598 44.7801V44.7466L104.632 44.7132C104.654 44.6909 104.665 44.6797 104.665 44.6797C104.665 44.6574 104.677 44.6351 104.699 44.6128C104.721 44.5681 104.744 44.5235 104.766 44.4789C104.789 44.4119 104.811 44.3562 104.834 44.3115Z" fill="#F4EDE8"/>
<path d="M117.985 57.1642C117.985 57.5659 118.019 57.8671 118.086 58.068C118.176 58.2465 118.265 58.3915 118.355 58.5031C118.445 58.5923 118.523 58.6816 118.591 58.7708C118.68 58.8601 118.725 59.0051 118.725 59.206H109.573C109.438 59.206 109.315 59.1502 109.203 59.0386C109.091 58.927 109.034 58.8043 109.034 58.6704C109.034 58.8043 108.978 58.927 108.866 59.0386C108.776 59.1502 108.653 59.206 108.496 59.206H106.746C106.746 59.0051 106.78 58.8601 106.847 58.7708C106.937 58.6816 107.027 58.5923 107.116 58.5031C107.206 58.3915 107.285 58.2465 107.352 58.068C107.442 57.8894 107.487 57.6105 107.487 57.2312V49.0644C107.419 48.3726 107.105 47.8706 106.544 47.5582C106.791 47.402 107.105 47.3239 107.487 47.3239V37.7513C107.487 37.372 107.442 37.093 107.352 36.9145C107.285 36.736 107.206 36.6021 107.116 36.5129C107.027 36.4013 106.937 36.3009 106.847 36.2116C106.78 36.1224 106.746 35.9773 106.746 35.7765H108.53C108.664 35.7765 108.788 35.8323 108.9 35.9439C109.012 36.0331 109.068 36.1559 109.068 36.312C109.068 35.955 109.248 35.7765 109.606 35.7765H118.725C118.725 35.9773 118.68 36.1224 118.591 36.2116C118.523 36.3009 118.445 36.4013 118.355 36.5129C118.265 36.6021 118.176 36.7472 118.086 36.948C118.019 37.1265 117.985 37.4166 117.985 37.8182V42.2698C117.2 42.2698 116.594 42.1248 116.168 41.8347C115.764 41.5223 115.461 41.1764 115.259 40.7971C115.013 40.3732 114.878 39.8711 114.856 39.2909V38.2533C114.856 38.0079 114.766 37.7959 114.587 37.6174C114.407 37.4389 114.194 37.3385 113.947 37.3162H111.524C111.278 37.3385 111.065 37.4389 110.885 37.6174C110.706 37.7959 110.616 38.0079 110.616 38.2533V45.7842C110.616 46.0297 110.706 46.2417 110.885 46.4202C111.065 46.5987 111.278 46.6879 111.524 46.6879H111.76C112.007 46.6879 112.209 46.5987 112.366 46.4202C112.545 46.2417 112.635 46.0297 112.635 45.7842V45.7508C112.657 45.4161 112.747 45.126 112.904 44.8805C113.039 44.6574 113.241 44.4566 113.51 44.2781C113.779 44.0995 114.172 44.0103 114.687 44.0103V50.9387C114.172 50.9387 113.779 50.8495 113.51 50.6709C113.241 50.4924 113.039 50.2916 112.904 50.0685C112.747 49.823 112.657 49.5329 112.635 49.1982C112.635 48.9528 112.545 48.7408 112.366 48.5623C112.209 48.3838 112.007 48.2834 111.76 48.2611H111.524C111.278 48.2834 111.065 48.3838 110.885 48.5623C110.706 48.7408 110.616 48.9528 110.616 49.1982V56.7291C110.616 56.9746 110.706 57.1866 110.885 57.3651C111.065 57.5436 111.278 57.6328 111.524 57.6328H113.947C114.194 57.6328 114.407 57.5436 114.587 57.3651C114.766 57.1866 114.856 56.9746 114.856 56.7291V55.6581C114.878 55.1002 115.013 54.6093 115.259 54.1854C115.461 53.806 115.764 53.4602 116.168 53.1478C116.594 52.8354 117.2 52.6792 117.985 52.6792V57.1642ZM109.304 45.9181C109.304 45.8065 109.292 45.6838 109.27 45.5499C109.27 45.4161 109.27 45.2822 109.27 45.1483V44.4119C109.248 43.921 109.236 43.4524 109.236 43.0062C109.236 42.5599 109.225 42.1359 109.203 41.7343C109.18 41.5558 109.169 41.3773 109.169 41.1988C109.169 41.0203 109.158 40.8529 109.135 40.6967C109.135 40.5182 109.124 40.362 109.102 40.2281C109.102 40.0942 109.102 39.9715 109.102 39.8599C109.102 39.7484 109.091 39.648 109.068 39.5587C109.068 39.4694 109.068 39.3913 109.068 39.3244V39.1571C109.046 39.1571 109.034 39.1682 109.034 39.1905V39.3244C109.034 39.3913 109.023 39.4694 109.001 39.5587C109.001 39.648 109.001 39.7484 109.001 39.8599C109.001 39.9715 108.99 40.0942 108.967 40.2281C108.967 40.362 108.967 40.5182 108.967 40.6967C108.945 40.8529 108.933 41.0203 108.933 41.1988C108.933 41.3773 108.922 41.5558 108.9 41.7343C108.877 42.1359 108.866 42.5599 108.866 43.0062C108.866 43.4524 108.855 43.921 108.833 44.4119V45.1483C108.833 45.2822 108.821 45.4161 108.799 45.5499C108.799 45.6838 108.799 45.8065 108.799 45.9181V49.0309C108.799 49.2094 108.81 49.3433 108.833 49.4325V50.5371C108.833 50.7825 108.833 51.028 108.833 51.2734C108.855 51.4966 108.866 51.7197 108.866 51.9428C108.866 52.1883 108.866 52.4114 108.866 52.6122C108.889 52.8131 108.9 53.0139 108.9 53.2147C108.922 53.4155 108.933 53.6052 108.933 53.7837C108.933 53.9399 108.945 54.1073 108.967 54.2858C108.967 54.442 108.967 54.587 108.967 54.7209C108.99 54.8548 109.001 54.9775 109.001 55.0891C109.001 55.2006 109.001 55.3122 109.001 55.4238C109.023 55.513 109.034 55.58 109.034 55.6246V55.792C109.034 55.8143 109.046 55.8254 109.068 55.8254V55.6246C109.068 55.58 109.068 55.513 109.068 55.4238C109.091 55.3122 109.102 55.2006 109.102 55.0891C109.102 54.9775 109.102 54.8548 109.102 54.7209C109.124 54.587 109.135 54.442 109.135 54.2858C109.158 54.1073 109.169 53.9399 109.169 53.7837C109.169 53.6052 109.18 53.4155 109.203 53.2147C109.203 53.0139 109.203 52.8131 109.203 52.6122C109.225 52.4114 109.236 52.1883 109.236 51.9428C109.236 51.7197 109.236 51.4966 109.236 51.2734C109.259 51.028 109.27 50.7825 109.27 50.5371V49.8007C109.27 49.6222 109.281 49.4995 109.304 49.4325V45.9181Z" fill="#F4EDE8"/>
<path d="M131.521 60.6117C131.768 60.6563 131.936 60.7344 132.026 60.846C132.138 60.9576 132.217 61.0692 132.262 61.1807C132.307 61.3146 132.329 61.4596 132.329 61.6158C131.611 61.6158 130.938 61.5266 130.31 61.3481C129.682 61.1696 129.121 60.8795 128.628 60.4778C128.156 60.0762 127.775 59.5518 127.483 58.9047C127.214 58.2576 127.08 57.4655 127.08 56.5283V51.9428C127.08 51.6528 127.068 51.2957 127.046 50.8718C127.024 50.4478 126.945 50.0462 126.811 49.6668C126.676 49.2875 126.463 48.9639 126.171 48.6962C125.902 48.4061 125.498 48.2611 124.96 48.2611H123.58C123.378 48.3057 123.199 48.4173 123.042 48.5958C122.907 48.752 122.84 48.9416 122.84 49.1648V57.1642C122.84 57.5659 122.874 57.8671 122.941 58.068C123.031 58.2465 123.12 58.3915 123.21 58.5031C123.3 58.5923 123.378 58.6816 123.446 58.7708C123.535 58.8601 123.58 59.0051 123.58 59.206H121.797C121.662 59.206 121.539 59.1502 121.427 59.0386C121.315 58.927 121.258 58.8043 121.258 58.6704C121.258 58.8043 121.202 58.927 121.09 59.0386C121 59.1502 120.877 59.206 120.72 59.206H118.97C118.97 59.0051 119.004 58.8601 119.071 58.7708C119.161 58.6816 119.251 58.5923 119.34 58.5031C119.43 58.3915 119.509 58.2465 119.576 58.068C119.666 57.8894 119.711 57.6105 119.711 57.2312V49.0644C119.643 48.3726 119.329 47.8706 118.768 47.5582C119.015 47.402 119.329 47.3239 119.711 47.3239V37.7513C119.711 37.372 119.666 37.093 119.576 36.9145C119.509 36.736 119.43 36.6021 119.34 36.5129C119.251 36.4013 119.161 36.3009 119.071 36.2116C119.004 36.1224 118.97 35.9773 118.97 35.7765H120.754C120.888 35.7765 121.012 35.8323 121.124 35.9439C121.236 36.0331 121.292 36.1559 121.292 36.312C121.292 35.955 121.472 35.7765 121.83 35.7765H124.993C125.711 35.7765 126.384 35.9104 127.012 36.1782C127.641 36.4459 128.19 36.8141 128.661 37.2827C129.132 37.729 129.502 38.2645 129.772 38.8893C130.041 39.5141 130.187 40.1723 130.209 40.8641V43.0396C130.209 43.9768 129.985 44.8359 129.536 45.6169C129.087 46.3979 128.482 47.0226 127.719 47.4912C128.482 47.9375 129.087 48.5623 129.536 49.3656C129.985 50.1466 130.209 51.0057 130.209 51.9428V56.3944C130.209 56.863 130.209 57.3428 130.209 57.8337C130.231 58.3022 130.288 58.7374 130.377 59.139C130.467 59.5183 130.602 59.8419 130.781 60.1097C130.961 60.3774 131.207 60.5448 131.521 60.6117ZM128.459 42.4706C128.437 42.5153 128.426 42.5711 128.426 42.638V43.4078C128.403 43.4971 128.392 43.5863 128.392 43.6756C128.392 43.7425 128.392 43.8095 128.392 43.8764C128.392 43.921 128.381 43.9545 128.358 43.9768C128.358 43.9991 128.358 44.0326 128.358 44.0772V44.2781C128.336 44.3227 128.325 44.3785 128.325 44.4454C128.325 44.49 128.314 44.5347 128.291 44.5793C128.291 44.6239 128.28 44.6574 128.257 44.6797V44.7466L128.224 44.8136C128.224 44.8136 128.246 44.8024 128.291 44.7801V44.7466L128.325 44.7132C128.347 44.6909 128.358 44.6797 128.358 44.6797C128.358 44.6574 128.37 44.6351 128.392 44.6128C128.414 44.5681 128.437 44.5235 128.459 44.4789C128.482 44.4119 128.504 44.3562 128.527 44.3115C128.549 44.2669 128.56 44.2446 128.56 44.2446C128.56 44.2223 128.571 44.1888 128.594 44.1442C128.616 44.0995 128.628 44.0661 128.628 44.0438C128.628 43.9991 128.639 43.9545 128.661 43.9099C128.684 43.8653 128.695 43.8318 128.695 43.8095C128.695 43.7872 128.706 43.7537 128.729 43.7091C128.729 43.6644 128.729 43.631 128.729 43.6086C128.751 43.564 128.762 43.5194 128.762 43.4748C128.785 43.3855 128.796 43.2963 128.796 43.207C128.818 43.1177 128.841 43.0285 128.863 42.9392C128.886 42.8723 128.897 42.7719 128.897 42.638C128.897 42.5934 128.897 42.5487 128.897 42.5041C128.919 42.4595 128.93 42.4149 128.93 42.3702V41.1988C128.93 41.0649 128.919 40.9645 128.897 40.8975V40.7636C128.897 40.719 128.886 40.6967 128.863 40.6967C128.863 40.6744 128.863 40.6409 128.863 40.5963C128.863 40.4847 128.841 40.3174 128.796 40.0942C128.773 40.0496 128.762 40.005 128.762 39.9603C128.762 39.9157 128.751 39.8711 128.729 39.8265C128.729 39.8042 128.717 39.793 128.695 39.793C128.695 39.7707 128.695 39.7484 128.695 39.7261C128.695 39.7037 128.684 39.6926 128.661 39.6926C128.661 39.6703 128.661 39.648 128.661 39.6256C128.639 39.581 128.628 39.5475 128.628 39.5252C128.628 39.5029 128.616 39.4694 128.594 39.4248C128.571 39.3802 128.56 39.3467 128.56 39.3244C128.56 39.3021 128.549 39.2686 128.527 39.224C128.504 39.2017 128.493 39.1794 128.493 39.1571C128.493 39.1347 128.482 39.1124 128.459 39.0901C128.414 39.0009 128.392 38.9562 128.392 38.9562C128.37 38.9339 128.358 38.9228 128.358 38.9228C128.358 38.9004 128.347 38.8781 128.325 38.8558C128.302 38.8335 128.291 38.8112 128.291 38.7889C128.269 38.7666 128.257 38.7442 128.257 38.7219H128.224C128.224 38.7219 128.235 38.7442 128.257 38.7889V38.8558C128.28 38.8781 128.291 38.9228 128.291 38.9897C128.291 39.012 128.291 39.0343 128.291 39.0566C128.314 39.0566 128.325 39.079 128.325 39.1236C128.325 39.1905 128.336 39.2463 128.358 39.2909V39.4583C128.358 39.5029 128.358 39.5364 128.358 39.5587C128.381 39.581 128.392 39.6145 128.392 39.6591C128.392 39.8599 128.403 40.0161 128.426 40.1277V40.6632C128.448 40.7748 128.459 40.9533 128.459 41.1988V42.4706ZM121.528 45.9181C121.528 45.8065 121.516 45.6838 121.494 45.5499C121.494 45.4161 121.494 45.2822 121.494 45.1483V44.4119C121.472 43.921 121.46 43.4524 121.46 43.0062C121.46 42.5599 121.449 42.1359 121.427 41.7343C121.404 41.5558 121.393 41.3773 121.393 41.1988C121.393 41.0203 121.382 40.8529 121.359 40.6967C121.359 40.5182 121.348 40.362 121.326 40.2281C121.326 40.0942 121.326 39.9715 121.326 39.8599C121.326 39.7484 121.315 39.648 121.292 39.5587C121.292 39.4694 121.292 39.3913 121.292 39.3244V39.1571C121.27 39.1571 121.258 39.1682 121.258 39.1905V39.3244C121.258 39.3913 121.247 39.4694 121.225 39.5587C121.225 39.648 121.225 39.7484 121.225 39.8599C121.225 39.9715 121.214 40.0942 121.191 40.2281C121.191 40.362 121.191 40.5182 121.191 40.6967C121.169 40.8529 121.158 41.0203 121.158 41.1988C121.158 41.3773 121.146 41.5558 121.124 41.7343C121.101 42.1359 121.09 42.5599 121.09 43.0062C121.09 43.4524 121.079 43.921 121.057 44.4119V45.1483C121.057 45.2822 121.045 45.4161 121.023 45.5499C121.023 45.6838 121.023 45.8065 121.023 45.9181V49.0309C121.023 49.2094 121.034 49.3433 121.057 49.4325V50.5371C121.057 50.7825 121.057 51.028 121.057 51.2734C121.079 51.4966 121.09 51.7197 121.09 51.9428C121.09 52.1883 121.09 52.4114 121.09 52.6122C121.113 52.8131 121.124 53.0139 121.124 53.2147C121.146 53.4155 121.158 53.6052 121.158 53.7837C121.158 53.9399 121.169 54.1073 121.191 54.2858C121.191 54.442 121.191 54.587 121.191 54.7209C121.214 54.8548 121.225 54.9775 121.225 55.0891C121.225 55.2006 121.225 55.3122 121.225 55.4238C121.247 55.513 121.258 55.58 121.258 55.6246V55.792C121.258 55.8143 121.27 55.8254 121.292 55.8254V55.6246C121.292 55.58 121.292 55.513 121.292 55.4238C121.315 55.3122 121.326 55.2006 121.326 55.0891C121.326 54.9775 121.326 54.8548 121.326 54.7209C121.348 54.587 121.359 54.442 121.359 54.2858C121.382 54.1073 121.393 53.9399 121.393 53.7837C121.393 53.6052 121.404 53.4155 121.427 53.2147C121.427 53.0139 121.427 52.8131 121.427 52.6122C121.449 52.4114 121.46 52.1883 121.46 51.9428C121.46 51.7197 121.46 51.4966 121.46 51.2734C121.483 51.028 121.494 50.7825 121.494 50.5371V49.8007C121.494 49.6222 121.505 49.4995 121.528 49.4325V45.9181ZM127.08 40.9979C127.08 40.7079 127.068 40.3508 127.046 39.9269C127.024 39.5029 126.945 39.1013 126.811 38.7219C126.676 38.3426 126.463 38.0191 126.171 37.7513C125.902 37.4612 125.498 37.3162 124.96 37.3162H123.748C123.502 37.3385 123.289 37.4389 123.109 37.6174C122.93 37.7959 122.84 38.0079 122.84 38.2533V45.7842C122.84 46.0297 122.93 46.2417 123.109 46.4202C123.289 46.5987 123.502 46.6879 123.748 46.6879H124.96C125.498 46.6879 125.902 46.5541 126.171 46.2863C126.463 46.0185 126.676 45.695 126.811 45.3156C126.945 44.914 127.024 44.5124 127.046 44.1107C127.068 43.6867 127.08 43.3297 127.08 43.0396V40.9979ZM129.334 59.3398C129.334 59.3398 129.323 59.3287 129.301 59.3064L129.267 59.2729C129.244 59.2283 129.222 59.1836 129.2 59.139C129.2 59.0944 129.177 59.0498 129.132 59.0051C129.11 58.9382 129.087 58.8713 129.065 58.8043C129.043 58.7151 129.02 58.6146 128.998 58.5031C128.953 58.2799 128.93 58.068 128.93 57.8671C128.908 57.7556 128.897 57.644 128.897 57.5324C128.897 57.3985 128.897 57.2535 128.897 57.0973V55.3234C128.897 55.1672 128.897 55.011 128.897 54.8548C128.897 54.6986 128.908 54.5312 128.93 54.3527C128.93 54.1965 128.93 54.0403 128.93 53.8841C128.93 53.7279 128.919 53.5717 128.897 53.4155V52.9469C128.897 52.7238 128.886 52.5676 128.863 52.4784C128.863 52.3222 128.852 52.1771 128.829 52.0432C128.829 51.887 128.818 51.742 128.796 51.6081C128.751 51.2957 128.706 51.028 128.661 50.8048C128.639 50.6933 128.616 50.5928 128.594 50.5036C128.571 50.392 128.538 50.2805 128.493 50.1689C128.448 50.0573 128.414 49.9681 128.392 49.9011C128.37 49.8342 128.336 49.7672 128.291 49.7003C128.246 49.6334 128.213 49.5776 128.19 49.5329C128.168 49.4883 128.145 49.4437 128.123 49.3991C128.1 49.3991 128.078 49.3879 128.056 49.3656C128.033 49.3656 128.022 49.3544 128.022 49.3321L128.056 49.3656C128.056 49.3879 128.067 49.4102 128.089 49.4325C128.089 49.4548 128.089 49.4772 128.089 49.4995C128.112 49.4995 128.123 49.5218 128.123 49.5664C128.145 49.5887 128.156 49.611 128.156 49.6334C128.156 49.6557 128.168 49.6891 128.19 49.7338C128.213 49.823 128.246 49.9792 128.291 50.2024C128.314 50.3139 128.325 50.4255 128.325 50.5371C128.347 50.6486 128.37 50.7602 128.392 50.8718C128.392 50.9833 128.392 51.1061 128.392 51.2399C128.414 51.3515 128.426 51.4854 128.426 51.6416V55.792C128.426 55.8812 128.426 55.9593 128.426 56.0262C128.448 56.0932 128.459 56.1713 128.459 56.2605C128.459 56.4167 128.459 56.5729 128.459 56.7291C128.482 56.863 128.504 56.9969 128.527 57.1308C128.549 57.2647 128.56 57.3985 128.56 57.5324C128.583 57.6663 128.605 57.789 128.628 57.9006C128.672 58.0345 128.706 58.1572 128.729 58.2688C128.751 58.358 128.785 58.4584 128.829 58.57C128.874 58.6816 128.908 58.7708 128.93 58.8378C128.953 58.9047 128.986 58.9717 129.031 59.0386L129.099 59.1055C129.121 59.1279 129.132 59.1502 129.132 59.1725C129.132 59.1725 129.144 59.1836 129.166 59.206L129.301 59.3398H129.334Z" fill="#F4EDE8"/>
<ellipse rx="1.80262" ry="1.79307" transform="matrix(1 0 0 -1 139.183 48.0172)" fill="#999591"/>
<ellipse rx="1.80262" ry="1.79307" transform="matrix(1 0 0 -1 24.4163 48.0172)" fill="#999591"/>
</svg>
